<?xml version="1.0" encoding="utf-8" ?>
<svg xmlns="http://www.w3.org/2000/svg" xmlns:xlink="http://www.w3.org/1999/xlink" width="1024" height="1024">
	<path fill="#F7FBFE" d="M0 0L1024 0L1024 1024L0 1024L0 0Z"/>
	<path fill="#5475B9" d="M178.971 270.845C177.098 269.576 175.199 268.313 173.475 266.846C165.594 260.139 160.747 250.836 160.062 240.49C159.372 230.043 162.442 219.493 169.52 211.663Q170.188 210.932 170.89 210.234Q171.593 209.537 172.329 208.875Q173.065 208.212 173.833 207.587Q174.6 206.962 175.397 206.374Q176.195 205.787 177.02 205.24Q177.845 204.693 178.696 204.187Q179.547 203.68 180.421 203.216Q181.296 202.752 182.192 202.332Q183.089 201.911 184.004 201.535Q184.92 201.159 185.853 200.828Q186.787 200.497 187.735 200.213Q188.683 199.928 189.644 199.69Q190.605 199.452 191.577 199.261Q192.548 199.071 193.528 198.928Q194.508 198.785 195.493 198.691Q196.479 198.596 197.468 198.55C207.699 198.103 217.817 202.268 225.218 209.255C233.677 217.241 236.614 227.618 236.963 238.939C235.833 250.071 231.607 259.912 222.835 267.174C215.179 273.512 204.411 277.475 194.42 276.383C188.724 275.761 183.914 273.622 178.971 270.845Z"/>
	<path fill="#F7FBFE" d="M180.222 268.738C177.852 267.386 175.652 265.664 173.699 263.765Q173.048 263.126 172.43 262.456Q171.811 261.785 171.226 261.086Q170.641 260.386 170.09 259.658Q169.54 258.931 169.026 258.177Q168.513 257.423 168.036 256.646Q167.56 255.868 167.122 255.067Q166.685 254.267 166.287 253.446Q165.889 252.626 165.531 251.786Q165.174 250.947 164.858 250.091Q164.543 249.236 164.269 248.365Q163.996 247.495 163.765 246.613Q163.535 245.73 163.348 244.837Q163.161 243.944 163.018 243.044Q162.875 242.143 162.776 241.236Q162.677 240.329 162.623 239.419Q162.569 238.508 162.559 237.596Q162.554 236.697 162.593 235.8Q162.632 234.902 162.716 234.007Q162.799 233.113 162.927 232.223Q163.054 231.334 163.225 230.452Q163.396 229.57 163.611 228.697Q163.825 227.825 164.082 226.964Q164.34 226.103 164.639 225.255Q164.938 224.408 165.279 223.577Q165.62 222.745 166.001 221.932Q166.382 221.118 166.803 220.324Q167.224 219.531 167.684 218.758Q168.144 217.986 168.641 217.238Q169.138 216.489 169.671 215.766Q170.205 215.043 170.773 214.347Q171.342 213.651 171.944 212.984Q172.546 212.317 173.18 211.681C180.009 204.828 189.671 201.083 199.302 201.08C208.584 201.077 217.894 205.387 224.345 211.987C232.431 220.26 234.259 229.948 234.08 241.11C232.37 251.793 227.955 260.372 219.07 266.87C211.552 272.37 201.773 275.025 192.531 273.509C188.245 272.807 183.865 271.11 180.222 268.738Z"/>
	<path fill="#020202" d="M360.509 122.633C369.074 126.924 405.424 142.293 409.764 146.892C410.468 147.638 410.276 147.279 410.272 148.348C408.151 151.808 401.194 153.694 397.522 155.156C396.85 165.817 397.333 176.755 397.384 187.451C385.333 191.691 373.446 196.568 361.602 201.356C350.317 196.158 338.548 191.718 327.085 186.89L327.034 155.811C323.163 154.222 313.875 151.415 311.69 148.054C311.398 147.606 311.377 147.546 311.584 147.069C313.465 142.722 353.348 126.176 360.509 122.633Z"/>
	<path fill="#5475B9" d="M393.412 156.978L394.007 157.17C395.184 160.903 394.136 180.409 394.037 185.771C383.135 189.233 372.265 193.796 361.723 198.23C351.569 193.566 341.11 189.528 330.901 184.971C329.002 182.266 330.199 162.086 330.235 157.521C341.101 161.03 351.401 166.654 362.169 170.592Q377.94 164.128 393.412 156.978Z"/>
	<path fill="#F7FBFE" d="M360.595 126.119C375.837 132.91 391.094 139.922 405.77 147.869Q384.014 157.932 362.004 167.426C346.505 160.728 330.731 154.443 315.486 147.196C330.134 139.427 345.863 133.732 360.595 126.119Z"/>
	<path fill="#020202" d="M860.67 348.092C860.946 348.184 861.226 348.264 861.498 348.367C865.869 350.014 911.196 372.154 912.143 373.26C912.361 373.515 912.405 373.878 912.536 374.187C909.727 377.538 901.545 379.925 897.456 381.675L897.355 414.54C885.503 420.292 873.436 425.545 861.639 431.425C860.127 431.743 828.562 415.407 825.101 413.317C824.655 403.084 824.928 392.766 824.972 382.524C820.184 379.926 814.633 377.804 810.283 374.571L810.144 373.578C810.544 372.808 810.9 372.379 811.647 371.92C816.642 368.85 822.48 366.64 827.767 364.092L860.67 348.092Z"/>
	<path fill="#F7FBFE" d="M893.445 383.051C894.806 386.678 893.843 407.582 893.799 412.966C883.115 417.745 871.758 422.408 861.76 428.473C850.57 423.666 839.619 417.612 828.669 412.233C828.595 412.179 828.508 412.139 828.446 412.071C827.042 410.546 827.871 387.103 827.898 383.415L847.586 393.54C851.872 395.763 856.182 398.344 860.741 399.957C871.737 394.507 882.236 388.087 893.445 383.051Z"/>
	<path fill="#5475B9" d="M860.475 351.432C876.366 358.352 891.758 366.397 907.456 373.742C891.393 379.684 876.38 388.602 861.156 396.345C859.414 396.477 818.194 375.844 814.124 373.5C829.761 366.437 845.2 359.262 860.475 351.432Z"/>
	<path fill="#020202" d="M809.296 153.989C810.1 153.925 810.315 153.971 811.064 154.22C816.62 156.067 822.323 159.56 827.612 162.129C837.079 166.727 847.578 170.937 856.457 176.492C858.349 177.675 860.624 179.23 861.534 181.336C861.879 182.133 861.655 182.233 861.379 182.972C857.797 186.473 851.71 187.99 847.059 189.695C846.97 199.738 847.055 209.778 846.901 219.822C834.854 225.438 822.628 230.633 810.712 236.524C807.154 236.553 779.508 222.679 774.498 220.566L775.007 189.674C770.199 187.194 763.522 186.075 759.533 182.411C759.113 181.294 759.015 180.459 759.458 179.304C760.62 176.283 802.904 157.072 809.296 153.989Z"/>
	<path fill="#F7FBFE" d="M777.789 190.836C788.918 194.974 799.684 200.877 810.39 206.026C821.715 201.236 832.581 195.721 844.049 191.154C844.164 195.062 844.923 216.457 843.343 218.25C832.456 223.659 821.207 228.374 810.155 233.443C799.123 229.029 788.358 223.715 777.605 218.656Q777.493 204.745 777.789 190.836Z"/>
	<path fill="#020202" d="M398.09 279.48C424.02 278.965 450.012 279.231 475.948 279.268L589.549 279.276L728.396 279.284C745.399 279.379 762.489 279.083 779.48 279.533C780.088 288.31 779.807 297.202 779.818 305.999L779.891 348.813L779.712 492.844L779.964 936.48L948.893 936.628C956.683 936.607 1008.11 935.585 1011.45 937.267L1011.58 938.023C1011.08 938.625 1010.73 938.881 1009.97 939.166C1007.46 940.121 987.615 939.369 982.987 939.385L847.146 939.304L266.18 939.482C236.89 939.519 16.1339 940.125 13.6057 939.012C13.3126 937.816 13.2771 937.865 13.8592 936.786C20.5808 935.625 28.5811 936.525 35.4241 936.552L75.3875 936.522L204.184 936.45Q204.459 913.706 204.398 890.961Q205.02 847.815 206.418 804.687L209.186 666.586C201.525 666.02 194.829 664.463 189.586 658.324C187.261 655.601 184.983 651.724 184.624 648.112C183.454 636.333 186.053 618.542 187.061 606.22Q191.148 558.389 195.883 510.617L200.653 463.754C201.622 453.901 201.642 441.847 204.64 432.525C207.462 423.747 212.632 415.54 219.781 409.656C233.485 398.377 248.137 399.863 264.735 399.582C267.296 393.907 269.833 388.351 272.957 382.958Q272.011 382.486 271.09 381.968Q270.168 381.45 269.273 380.887Q268.378 380.324 267.512 379.718Q266.645 379.112 265.81 378.465Q264.974 377.817 264.171 377.129Q263.369 376.441 262.601 375.715Q261.832 374.989 261.101 374.225Q260.369 373.462 259.676 372.664Q258.983 371.866 258.33 371.035Q257.676 370.204 257.065 369.341Q256.453 368.479 255.884 367.588Q255.316 366.697 254.791 365.779Q254.267 364.861 253.788 363.918Q253.31 362.975 252.878 362.011Q252.446 361.046 252.062 360.061Q251.678 359.076 251.343 358.073C246.887 344.836 247.379 329.855 253.713 317.309C259.748 305.356 271.555 295.476 284.313 291.463Q285.461 291.108 286.625 290.809Q287.788 290.509 288.965 290.267Q290.142 290.025 291.329 289.84Q292.517 289.655 293.712 289.528Q294.906 289.401 296.106 289.333Q297.306 289.264 298.507 289.253Q299.709 289.243 300.909 289.291Q302.11 289.339 303.307 289.445Q304.504 289.552 305.694 289.716Q306.884 289.88 308.065 290.102Q309.246 290.324 310.415 290.603Q311.584 290.882 312.737 291.218Q313.891 291.553 315.027 291.944Q316.164 292.335 317.279 292.781Q318.395 293.227 319.488 293.727Q320.581 294.226 321.648 294.778Q322.722 295.347 323.766 295.968Q324.811 296.589 325.824 297.26Q326.838 297.931 327.817 298.65Q328.797 299.369 329.741 300.135Q330.684 300.9 331.59 301.711Q332.495 302.522 333.36 303.375Q334.225 304.229 335.048 305.123Q335.871 306.018 336.649 306.951Q337.427 307.884 338.159 308.854Q338.892 309.824 339.576 310.828Q340.26 311.833 340.895 312.869Q341.53 313.905 342.114 314.971Q342.698 316.037 343.229 317.13Q343.76 318.222 344.238 319.34Q344.716 320.457 345.139 321.596Q345.563 322.736 345.93 323.894C350.005 337.166 348.845 353.676 342.291 365.989C338.249 373.583 331.885 379.288 323.57 381.743L322.883 381.94C325.457 387.853 328.655 393.532 331.104 399.479C349.173 399.31 360.798 399.725 374.449 413.194C390.425 428.957 389.104 448.229 389.642 468.804C389.945 480.415 390.327 492.121 391.284 503.697C393.563 496.633 396.801 488.912 397.746 481.537C398.66 474.408 398.195 466.839 398.176 459.655L398.089 421.803L398.204 320.167C398.217 306.614 397.919 293.027 398.09 279.48Z"/>
	<path fill="#F7FBFE" d="M432.516 331.512C439.771 331.369 448.324 330.439 455.446 331.696C456.14 333.15 455.869 335.426 455.883 337.027C448.336 337.066 440.388 337.608 432.895 336.842C432.199 335.41 432.5 333.116 432.516 331.512Z"/>
	<path fill="#F7FBFE" d="M459.467 331.396C466.431 331.139 475.472 330.283 482.259 331.654C482.907 333.281 482.684 335.259 482.663 336.997L459.172 337.007L459.467 331.396Z"/>
	<path fill="#F7FBFE" d="M678.441 332.502L704.334 332.404L704.32 338.764C695.713 338.973 687.07 338.77 678.46 338.724L678.441 332.502Z"/>
	<path fill="#F7FBFE" d="M453.677 397.449C454.188 397.465 455.264 397.413 455.785 397.602C457.032 398.052 457.086 398.597 457.519 399.725C457.073 404.997 451.681 409.723 449.195 414.262C447.667 417.05 447.798 418.398 448.606 421.409L441.636 419.943L434.422 417.931C440.876 411.401 446.148 402.677 453.677 397.449Z"/>
	<path fill="#F7FBFE" d="M431.968 309.908C439.952 309.735 447.963 309.842 455.95 309.816L455.91 319.886C447.957 320.159 439.951 319.991 431.991 320.005L431.968 309.908Z"/>
	<path fill="#F7FBFE" d="M459.831 309.724Q471.557 309.67 483.283 309.806C483.381 312.116 484.135 318.017 482.817 319.775C474.939 319.99 467.028 319.861 459.146 319.875C459.064 317.391 458.302 311.607 459.831 309.724Z"/>
	<path fill="#F7FBFE" d="M676.416 309.688L707.102 309.681Q707.187 314.73 706.958 319.775C696.778 319.979 686.533 319.881 676.354 319.672L676.416 309.688Z"/>
	<path fill="#F7FBFE" d="M671.498 468.723L708.258 468.758Q708.115 473.374 708.09 477.993L671.481 478.013L671.498 468.723Z"/>
	<path fill="#F7FBFE" d="M515.511 468.864L550.594 468.927L550.606 479.11C538.923 479.556 527.125 479.311 515.428 479.37L515.511 468.864Z"/>
	<path fill="#F7FBFE" d="M559.942 309.646Q578.661 309.528 597.379 309.72C597.487 313.161 597.414 316.629 597.429 320.074C584.966 320.601 572.371 320.505 559.899 320.355L559.942 309.646Z"/>
	<path fill="#F7FBFE" d="M328.821 349.573C334.756 349.146 338.746 349.802 343.879 352.953C342.948 356.269 341.841 359.511 340.302 362.6C336.587 370.055 331.423 375.561 323.359 378.282C318.69 379.552 313.704 379.432 308.908 379.43C310.886 373.006 312.778 365.797 315.85 359.826C318.801 354.092 322.913 351.511 328.821 349.573Z"/>
	<path fill="#F7FBFE" d="M276.255 382.522Q297.836 382.282 319.419 382.332C322.26 387.956 325.364 393.555 327.609 399.449L318.774 399.455L267.738 399.444C270.953 394.038 273.547 388.198 276.255 382.522Z"/>
	<path fill="#F7FBFE" d="M192.472 616.246Q201.257 616.138 210.041 616.354C210.123 623.026 210.076 659.351 208.979 663.101C207.361 663.795 205.685 663.531 203.969 663.44Q203.454 663.347 202.944 663.232Q202.441 663.113 201.944 662.969Q201.447 662.825 200.957 662.657Q200.468 662.489 199.988 662.296Q199.508 662.104 199.038 661.888Q198.568 661.672 198.109 661.433Q197.65 661.193 197.204 660.932Q196.757 660.67 196.325 660.387Q195.892 660.104 195.473 659.799Q195.055 659.495 194.653 659.17Q194.25 658.845 193.864 658.5Q193.478 658.156 193.11 657.792Q192.741 657.429 192.392 657.048Q192.042 656.667 191.711 656.269Q191.381 655.871 191.07 655.457Q190.76 655.043 190.47 654.614Q190.181 654.186 189.913 653.743Q189.406 652.878 188.986 651.968Q188.567 651.058 188.24 650.11Q187.912 649.163 187.68 648.188Q187.448 647.213 187.313 646.22C186.615 641.089 187.773 622.153 188.962 617.052C190.096 616.18 191.079 616.355 192.472 616.246Z"/>
	<path fill="#F7FBFE" d="M276.277 890.676C277.375 890.007 277.373 889.769 277.669 888.461C278.92 882.916 279.089 876.707 279.638 871.037Q281.173 854.776 282.909 838.535L288.708 785.025C289.638 776.237 291.179 767.017 291.251 758.202C291.332 748.216 285.708 690.147 287.018 687.03L287.466 687.137C289.43 692.853 289.767 712.235 290.272 719.444C291.174 732.316 292.647 745.334 292.934 758.224C293.056 763.703 292.051 769.142 292.228 774.641C292.956 797.237 295.072 819.913 296.303 842.5L297.909 874.254C298.19 879.725 298.176 885.432 298.907 890.859C299.868 905.763 299.295 921.232 298.998 936.174C295.499 936.203 291.989 936.087 288.49 936.028C288.582 935.847 288.678 935.668 288.766 935.485C292.151 928.472 292.634 921.141 290.124 913.738Q289.806 912.826 289.443 911.931Q289.081 911.035 288.676 910.159Q288.27 909.282 287.822 908.426Q287.374 907.57 286.885 906.737Q286.396 905.905 285.867 905.096Q285.338 904.288 284.77 903.507Q284.203 902.726 283.597 901.973Q282.992 901.22 282.351 900.498Q281.71 899.775 281.034 899.085Q280.358 898.395 279.65 897.739Q278.941 897.082 278.201 896.461Q277.462 895.84 276.692 895.255Q275.923 894.671 275.127 894.125Q274.33 893.579 273.507 893.072Q272.685 892.566 271.839 892.1Q270.993 891.634 270.125 891.21C272.201 891.129 274.218 890.958 276.277 890.676Z"/>
	<path fill="#F7FBFE" d="M455.659 468.707L471.506 468.684L471.487 597.505L448.25 597.502L432.943 597.481L432.885 559.863C432.857 553.817 432.195 547.012 433.03 541.044C433.523 537.52 439.09 525.82 440.61 521.021Q445.454 505.304 449.976 489.492C451.89 482.568 453.486 475.557 455.659 468.707Z"/>
	<path fill="#F7FBFE" d="M486.946 309.651Q502.928 309.539 518.91 309.641C518.473 352.572 518.903 395.546 518.988 438.48L486.799 438.479C487.569 395.565 486.968 352.575 486.946 309.651Z"/>
	<path fill="#5475B9" d="M515.428 479.37C527.125 479.311 538.923 479.556 550.606 479.11L550.569 597.486L515.158 597.465C514.778 578.32 515.171 559.094 515.176 539.941C515.181 519.768 514.824 499.531 515.428 479.37Z"/>
	<path fill="#F16E6D" d="M708.258 468.758C708.851 473.803 708.437 479.115 708.376 484.194L708.164 509.724L707.992 597.692L671.504 597.704L671.481 478.013L708.09 477.993Q708.115 473.374 708.258 468.758Z"/>
	<path fill="#83AAA9" d="M559.899 320.355C572.371 320.505 584.966 320.601 597.429 320.074Q596.858 379.278 597.222 438.485L559.602 438.471L559.899 320.355Z"/>
	<path fill="#F7FBFE" d="M600.355 309.695C611.855 309.386 623.442 309.676 634.951 309.681Q634.495 374.084 634.797 438.488L600.226 438.447C599.88 414.327 600.034 390.159 600.059 366.035C600.078 347.27 599.859 328.452 600.355 309.695Z"/>
	<path fill="#F7FBFE" d="M638.01 309.581Q655.327 309.478 672.643 309.7C673.163 324.484 672.514 339.542 672.472 354.349L672.378 438.537Q655.144 438.619 637.911 438.486C637.357 423.23 637.805 407.816 637.827 392.54L638.01 309.581Z"/>
	<path fill="#F7FBFE" d="M521.73 309.718Q539.175 309.56 556.618 309.814L556.795 438.412C545.181 438.809 533.422 438.432 521.793 438.422L521.73 309.718Z"/>
	<path fill="#F7FBFE" d="M632.794 468.701C644.691 468.386 656.656 468.627 668.559 468.658L668.539 554.778C668.545 568.816 669.561 583.597 668.421 597.561L632.647 597.52L632.794 468.701Z"/>
	<path fill="#F7FBFE" d="M594.004 468.707Q612.028 468.499 630.051 468.736L629.98 553.949C629.969 568.293 630.87 583.231 629.823 597.51L593.707 597.506C593.529 577.186 593.871 556.84 593.882 536.516C593.894 513.924 593.597 491.293 594.004 468.707Z"/>
	<path fill="#F16E6D" d="M710.575 309.565C723.128 309.45 735.696 309.606 748.25 309.632L748.049 438.453L711.476 438.51Q711.522 374.034 710.575 309.565Z"/>
	<path fill="#F7FBFE" d="M553.524 468.837C566.017 468.555 578.564 468.783 591.063 468.786L591.011 597.501L553.488 597.492L553.524 468.837Z"/>
	<path fill="#F16E6D" d="M711.121 468.571L748.286 468.564C748.128 481.561 748.473 494.58 748.493 507.58L748.502 597.717C736.028 597.362 723.468 597.646 710.985 597.641L711.121 468.571Z"/>
	<path fill="#F7FBFE" d="M474.54 468.622C487.054 468.405 499.611 468.563 512.126 468.684Q512.508 533.147 512.076 597.61L474.498 597.572L474.54 468.622Z"/>
	<path fill="#5475B9" d="M298.907 890.859L343.791 890.588C350.693 890.546 358.626 889.761 365.397 890.799C377.67 898.538 387.302 904.946 390.595 920.17C391.777 925.636 390.762 930.597 389.203 935.847C390.897 936.187 392.532 936.315 394.255 936.413C387.033 936.858 379.634 936.511 372.385 936.507L331.476 936.481L204.184 936.45Q204.459 913.706 204.398 890.961L255.239 890.854C262.228 890.837 269.304 890.509 276.277 890.676C274.218 890.958 272.201 891.129 270.125 891.21Q270.993 891.634 271.839 892.1Q272.685 892.566 273.507 893.073Q274.33 893.579 275.127 894.125Q275.923 894.671 276.692 895.256Q277.462 895.84 278.201 896.461Q278.941 897.082 279.65 897.739Q280.358 898.395 281.034 899.085Q281.71 899.775 282.351 900.498Q282.992 901.22 283.597 901.973Q284.203 902.726 284.77 903.507Q285.338 904.288 285.867 905.096Q286.396 905.905 286.885 906.737Q287.374 907.57 287.822 908.426Q288.27 909.282 288.676 910.159Q289.081 911.035 289.443 911.931Q289.806 912.826 290.124 913.738C292.634 921.141 292.151 928.472 288.766 935.485C288.678 935.668 288.582 935.847 288.49 936.028C291.989 936.087 295.499 936.203 298.998 936.174C299.295 921.232 299.868 905.763 298.907 890.859Z"/>
	<path fill="#F7FBFE" d="M387.166 576.558C391.284 576.143 395.372 575.724 399.451 575.006L399.457 936.44L394.255 936.413C392.532 936.315 390.897 936.187 389.203 935.847C390.762 930.597 391.777 925.636 390.595 920.17C387.302 904.946 377.67 898.538 365.397 890.799C366.721 878.936 366.76 866.861 367.434 854.939L371.513 781.694Q376.067 699.101 381.571 616.568C383.389 616.481 385.175 616.592 386.737 615.532C387.434 611.318 387.087 606.712 387.095 602.438C387.112 593.818 387.009 585.176 387.166 576.558Z"/>
	<path fill="#F7FBFE" d="M245.415 402.728C268.547 402.91 291.725 402.433 314.863 402.392C325.033 402.374 335.752 401.651 345.843 402.624Q348.626 402.9 351.348 403.543Q354.069 404.186 356.681 405.186C373.228 411.388 383.63 426.95 386.076 444.103C387.068 451.063 386.677 458.429 386.88 465.474Q387.308 480.521 388.057 495.555C388.298 500.335 387.789 507.549 389.768 511.826L390.554 512.113C391.634 511.208 392.053 510.235 392.563 508.956C395.188 502.358 396.799 494.77 398.86 487.924C402.96 474.313 407.266 460.764 411.258 447.121C413.165 440.603 415.862 427.013 419.623 422.043C420.795 420.495 422.382 420.016 424.235 419.81C430.498 419.113 453.657 425.192 458.3 429.242C460.158 430.863 461.144 432.49 461.238 434.983C461.469 441.131 457.961 447.621 456.51 453.561Q450.49 477.63 443.515 501.439C440.175 512.751 436.987 524.134 432.235 534.955C428.419 543.643 423.799 552.218 417.345 559.251C410.064 567.186 400.731 573.004 389.704 573.259C381.093 573.458 373.645 569.221 367.531 563.485C347.614 544.799 344.055 511.164 342.572 485.228C342.323 480.879 342.748 476.489 342.464 472.155C342.373 470.751 342.346 469.941 341.3 468.975L340.249 469.226C340.135 469.419 340.011 469.607 339.905 469.805C338.242 472.912 339.323 479.713 339.522 483.271C340.608 502.644 342.744 520.616 348.934 539.118C350.474 543.235 352.186 547.243 354.303 551.101C361.217 563.703 370.429 572.121 384.306 576.093Q384.458 594.806 384.385 613.519L210.209 613.313C212.231 579.681 215.285 546.043 217.681 512.426Q218.838 496.936 219.697 481.427C219.894 477.829 220.562 473.853 220.371 470.288C220.333 469.574 220.101 469.139 219.679 468.581C218.337 468.473 218.653 468.517 217.723 469.308C217.402 470.031 217.211 470.663 217.146 471.456C216.406 480.444 216.157 489.501 215.566 498.505L211.755 553.509C210.359 573.4 208.033 593.522 207.419 613.423L189.434 613.394C190.922 592.14 193.162 570.983 195.235 549.784L201.447 485.937L204.427 454.909C205.04 448.503 205.4 441.882 206.835 435.6C208.372 428.879 211.35 423.058 215.816 417.801C223.457 408.807 233.729 403.701 245.415 402.728Z"/>
	<path fill="#5475B9" d="M401.033 282.516L776.633 282.476L776.918 936.522L402.47 936.42L402.421 679.413C402.449 644.286 402.081 609.148 402.439 574.023C414.349 568.744 422.961 557.895 429.881 547.269C430.302 565.005 429.978 582.812 429.977 600.556C436.339 600.996 442.868 600.719 449.25 600.697L651.047 600.56C684.608 600.583 718.186 601.143 751.745 600.775L751.46 465.748C741.285 464.791 730.323 465.56 720.072 465.569L658.419 465.612L456.074 465.559C458.046 457.55 460.874 449.663 463.05 441.682L751.52 441.501L751.464 348.946C751.472 334.795 751.813 320.55 751.34 306.413C738.897 305.306 725.74 306.161 713.241 306.26L650.288 306.434L428.75 306.489C428.195 319.432 428.671 332.604 428.685 345.563Q428.638 381.024 428.958 416.483C426.154 416.357 423.17 416.342 420.629 417.703C418.795 418.685 417.397 420.15 416.414 421.974C413.495 427.391 411.928 434.285 410.195 440.181L401.836 469.407C400.2 462.687 400.811 454.874 400.787 447.972L400.891 412.364L401.033 282.516Z"/>
	<path fill="#020202" d="M624.908 788.254C647.513 787.943 670.149 788.339 692.759 788.323C712.462 788.309 732.248 787.802 751.941 788.326L751.562 921.56L557.004 921.572L429.777 921.839C430.445 877.429 429.991 832.883 429.603 788.468C494.667 787.598 559.83 788.436 624.908 788.254Z"/>
	<path fill="#F7FBFE" d="M593.603 791.048C605.722 791.065 617.853 790.963 629.971 791.108L630.044 799.976C617.89 800.003 605.688 800.228 593.54 799.906L593.603 791.048Z"/>
	<path fill="#F7FBFE" d="M474.5 791.181C486.626 790.717 498.986 791.002 511.126 791.27Q510.866 795.931 510.963 800.599L474.463 800.627L474.5 791.181Z"/>
	<path fill="#F16E6D" d="M511.126 791.27C512.303 804.955 511.313 819.437 511.32 833.199L511.474 918.603L474.506 918.598L474.463 800.627L510.963 800.599Q510.866 795.931 511.126 791.27Z"/>
	<path fill="#5475B9" d="M593.54 799.906C605.688 800.228 617.89 800.003 630.044 799.976C630.886 839.425 629.991 879.099 630.047 918.569L593.311 918.616C593.092 879.079 592.712 839.433 593.54 799.906Z"/>
	<path fill="#F7FBFE" d="M632.846 791.124C644.603 790.885 656.464 791.055 668.222 791.328C668.793 806.777 668.469 822.343 668.466 837.806L668.371 918.486C656.53 918.752 644.665 918.581 632.822 918.561L632.846 791.124Z"/>
	<path fill="#F7FBFE" d="M556.019 791.253L590.506 791.13C590.401 803.206 590.785 915.781 589.799 918.281L588.625 918.582L553.479 918.543L553.485 834.089C553.501 821.244 553.035 808.244 553.323 795.429C553.349 794.273 553.345 792.844 553.985 791.836C554.385 791.205 555.337 791.342 556.019 791.253Z"/>
	<path fill="#F7FBFE" d="M516.059 791.253C527.688 791.018 539.372 791.202 551.002 791.373L551.033 885.151L551.023 908.471C551.022 911.184 551.489 914.875 550.983 917.498C550.9 917.929 550.734 918.103 550.502 918.423L548.625 918.617Q531.302 918.825 513.979 918.704C513.983 904.098 513.386 793.499 514.227 791.928C514.599 791.235 515.356 791.372 516.059 791.253Z"/>
	<path fill="#F7FBFE" d="M673.031 791.246Q690.709 791.187 708.387 791.348C708.873 823.093 708.529 854.918 708.503 886.668C708.499 892.561 709.287 914.192 708.235 918.143L707.125 918.547L671.03 918.518C670.974 906.56 670.266 794.5 671.58 791.577L673.031 791.246Z"/>
	<path fill="#F7FBFE" d="M711.459 791.226Q730.186 791.044 748.911 791.302L748.713 918.715L711.376 918.624L711.344 839.748C711.339 823.604 710.935 807.359 711.459 791.226Z"/>
	<path fill="#F7FBFE" d="M432.651 791.186L471.52 791.323L471.477 918.566Q452.097 918.709 432.717 918.649L432.651 791.186Z"/>
	<path fill="#020202" d="M430.044 625.49L751.633 625.392L751.678 724.456C751.688 732.76 752.686 757.188 751.278 763.89C717.827 764.802 684.177 763.853 650.699 763.906L429.563 763.936L429.68 672.651C429.68 658.05 428.71 639.577 430.044 625.49Z"/>
	<path fill="#F7FBFE" d="M518.919 649.511L546.41 649.572L546.501 656.008L518.834 656.096C518.801 653.906 518.888 651.702 518.919 649.511Z"/>
	<path fill="#F7FBFE" d="M515.773 628.651L550.202 628.599L550.224 636.994L515.776 637.024C515.694 634.24 515.763 631.437 515.773 628.651Z"/>
	<path fill="#F7FBFE" d="M711.499 628.549L748.504 628.543L748.505 640.007L711.5 640.024L711.499 628.549Z"/>
	<path fill="#F16E6D" d="M748.505 640.007L748.568 760.922Q730.065 761.121 711.561 761.082L711.5 640.024L748.505 640.007Z"/>
	<path fill="#F7FBFE" d="M632.635 628.467C644.557 627.961 656.683 628.301 668.616 628.452L668.345 760.997L633.037 760.968C632.097 716.846 632.85 672.604 632.635 628.467Z"/>
	<path fill="#D1E1DD" d="M593.792 628.505Q611.935 628.407 630.079 628.522L630.049 638.518L630.042 760.972L593.377 761.003C592.768 732.646 593.378 704.151 593.399 675.777L593.426 645.995C593.435 640.232 593.104 634.227 593.792 628.505Z"/>
	<path fill="#F7FBFE" d="M593.792 628.505Q611.935 628.407 630.079 628.522L630.049 638.518L593.914 638.993C593.99 635.48 594.06 632.012 593.792 628.505Z"/>
	<path fill="#F7FBFE" d="M553.494 628.478C565.759 628.03 578.171 628.252 590.444 628.427C591.02 672.512 590.089 716.65 590.284 760.746C586.839 761.343 582.647 760.925 579.133 760.93L553.423 760.896C552.708 716.805 553.444 672.578 553.494 628.478Z"/>
	<path fill="#F7FBFE" d="M671.481 628.416C683.804 628.146 696.181 628.436 708.508 628.522C707.889 672.65 708.521 716.823 708.408 760.958C696.123 761.326 683.738 761.031 671.442 761.052C670.529 716.92 671.404 672.568 671.481 628.416Z"/>
	<path fill="#F7FBFE" d="M474.552 628.541L512.397 628.546L512.042 760.977L474.569 760.961C474.118 716.839 474.532 672.667 474.552 628.541Z"/>
	<path fill="#D1E1DD" d="M432.842 628.494Q452.209 628.373 471.576 628.51C472.23 633.318 471.845 638.55 471.823 643.416L471.764 668.964L471.685 760.944L432.523 760.86L432.56 671.745L432.512 644.56C432.506 639.287 432.16 633.724 432.842 628.494Z"/>
	<path fill="#F7FBFE" d="M432.842 628.494Q452.209 628.373 471.576 628.51C471.154 631.672 471.364 635.1 471.35 638.296Q452.225 638.506 433.098 638.493C433.129 635.141 433.162 631.836 432.842 628.494Z"/>
</svg>
