<?xml version="1.0" encoding="utf-8" ?>
<svg xmlns="http://www.w3.org/2000/svg" xmlns:xlink="http://www.w3.org/1999/xlink" width="1024" height="1024">
	<path fill="white" d="M0 0L1024 0L1024 1024L0 1024L0 0Z"/>
	<path d="M242.975 206.497C234.373 201.067 226.408 195.879 220.054 187.761C209.618 174.43 204.855 155.484 207.037 138.762C209.33 121.184 218.543 104.392 232.729 93.6034Q234.07 92.5892 235.46 91.6426Q236.85 90.696 238.285 89.8193Q239.72 88.9426 241.197 88.138Q242.673 87.3334 244.188 86.6029Q245.703 85.8723 247.252 85.2176Q248.8 84.5629 250.38 83.9856Q251.959 83.4083 253.565 82.9099Q255.171 82.4115 256.8 81.9932Q258.429 81.5748 260.076 81.2376Q261.724 80.9004 263.386 80.6451Q265.048 80.3898 266.721 80.2171Q268.394 80.0443 270.073 79.9546Q271.752 79.8648 273.434 79.8582Q275.115 79.8516 276.795 79.9283Q278.475 80.0049 280.149 80.1646Q281.823 80.3243 283.487 80.5666Q285.081 80.7991 286.662 81.1105Q288.243 81.422 289.806 81.8115Q291.37 82.2011 292.912 82.6678Q294.454 83.1345 295.971 83.6772Q297.488 84.2199 298.977 84.8373Q300.465 85.4547 301.921 86.1452Q303.376 86.8357 304.796 87.5977Q306.216 88.3596 307.596 89.1911Q308.976 90.0227 310.313 90.9217Q311.65 91.8207 312.941 92.785Q314.232 93.7494 315.473 94.7766Q316.714 95.8038 317.903 96.8914Q319.092 97.979 320.225 99.1243Q321.358 100.27 322.433 101.47Q323.508 102.67 324.522 103.922Q325.536 105.174 326.487 106.475Q327.472 107.803 328.39 109.179Q329.308 110.554 330.157 111.973Q331.006 113.391 331.784 114.85Q332.562 116.309 333.268 117.805Q333.973 119.3 334.604 120.829Q335.235 122.357 335.789 123.915Q336.344 125.472 336.821 127.055Q337.299 128.638 337.697 130.243Q338.096 131.848 338.415 133.47Q338.734 135.093 338.973 136.729Q339.212 138.365 339.37 140.011Q339.528 141.657 339.604 143.308Q339.681 144.96 339.676 146.614Q339.671 148.267 339.585 149.918Q339.499 151.569 339.331 153.214Q339.163 154.859 338.915 156.494Q338.683 157.922 338.388 159.338Q338.094 160.754 337.738 162.156Q337.382 163.558 336.965 164.943Q336.549 166.328 336.072 167.693Q335.595 169.058 335.059 170.402Q334.522 171.745 333.928 173.064Q333.334 174.382 332.682 175.674Q332.031 176.965 331.324 178.227Q330.617 179.488 329.855 180.718Q329.093 181.948 328.279 183.143Q327.464 184.338 326.598 185.496Q325.732 186.655 324.816 187.774Q323.9 188.894 322.936 189.972Q321.972 191.05 320.962 192.085Q319.952 193.121 318.898 194.111Q317.844 195.101 316.747 196.044C312.878 199.352 308.585 202.027 304.457 204.983C304.435 205.144 304.411 205.305 304.392 205.466C302.541 220.639 309.71 243.697 296.001 254.474C288.219 260.591 271.872 260.585 262.15 259.254C256.05 258.419 250.643 255.596 246.995 250.548C241.78 243.332 242.931 233.423 242.987 225.014L242.975 206.497Z"/>
	<path fill="#D7E4F3" d="M246.273 229.718L301.691 229.549C301.784 238.847 301.959 245.168 295.088 252.227C292.074 254.51 289.404 255.887 285.638 256.506C279.73 257.476 265.758 257.364 260.042 256.158Q259.104 255.969 258.191 255.681Q257.279 255.393 256.402 255.01Q255.525 254.626 254.694 254.152Q253.863 253.678 253.087 253.118C249.093 250.218 246.846 245.913 246.065 241.102C245.677 238.711 244.924 231.556 246.273 229.718Z"/>
	<path fill="white" d="M266.839 82.6787Q269.445 82.3807 272.066 82.3015Q274.688 82.2222 277.307 82.3622Q279.926 82.5022 282.524 82.8605Q285.122 83.2188 287.681 83.7929C304.377 87.6025 318.527 98.255 327.494 112.764C336.501 127.337 339.583 144.439 335.447 161.141C331.135 178.555 319.809 192.705 304.545 201.853Q303.908 189.045 304.031 176.222C304.065 171.207 305.406 164.043 304.313 159.242C304.091 158.267 303.612 158.107 302.837 157.592L302.205 158.121C300.655 163.266 301.624 170.858 301.597 176.314C301.514 193.036 301.832 209.758 301.661 226.478C283.005 227.168 264.323 226.965 245.658 226.962L245.574 218.75L245.458 160.9L274.792 160.749C278.234 160.732 282.421 161.211 285.775 160.686C287.045 160.488 287.706 160.16 288.436 159.09C286.193 157.13 248.583 158.137 243.143 158.136C242.094 172.999 242.794 188.313 242.881 203.22Q238.006 200.634 233.552 197.377Q232.346 196.476 231.186 195.517Q230.027 194.558 228.916 193.542Q227.806 192.527 226.747 191.457Q225.688 190.388 224.683 189.267Q223.679 188.146 222.731 186.977Q221.784 185.808 220.895 184.593Q220.007 183.378 219.18 182.121Q218.353 180.863 217.59 179.566Q216.826 178.269 216.128 176.936Q215.43 175.603 214.798 174.237Q214.167 172.871 213.605 171.475Q213.042 170.079 212.549 168.657Q212.057 167.235 211.635 165.79Q211.214 164.345 210.865 162.881Q210.516 161.417 210.239 159.938Q209.963 158.458 209.761 156.967Q209.516 155.339 209.354 153.702Q209.192 152.064 209.112 150.42Q209.033 148.776 209.036 147.13Q209.04 145.484 209.126 143.841Q209.213 142.197 209.382 140.56Q209.551 138.923 209.803 137.297Q210.055 135.67 210.388 134.058Q210.721 132.447 211.135 130.854Q211.549 129.261 212.043 127.691Q212.537 126.121 213.11 124.578Q213.682 123.035 214.332 121.523Q214.981 120.01 215.706 118.533Q216.431 117.055 217.23 115.616Q218.028 114.177 218.899 112.78Q219.769 111.383 220.708 110.032Q221.648 108.68 222.654 107.378C233.39 93.2295 249.435 85.0487 266.839 82.6787Z"/>
	<path fill="#D7E4F3" d="M779.033 61.2797C780.945 52.9 784.902 45.977 792.307 41.2553Q792.957 40.8397 793.627 40.4574Q794.297 40.0751 794.986 39.7271Q795.675 39.3791 796.38 39.0661Q797.085 38.7532 797.805 38.4763Q798.526 38.1993 799.259 37.9589Q799.992 37.7186 800.736 37.5155Q801.481 37.3124 802.234 37.147Q802.988 36.9817 803.749 36.8545Q804.51 36.7274 805.276 36.6387Q806.043 36.55 806.813 36.5001Q807.583 36.4502 808.354 36.4391Q809.126 36.428 809.897 36.4558Q810.668 36.4836 811.436 36.5502Q812.205 36.6168 812.97 36.7221Q813.734 36.8273 814.492 36.9709Q815.25 37.1146 816 37.2962C823.406 39.041 830.149 43.7949 834.119 50.2977C836.245 53.7793 837.307 57.459 838.208 61.4015L931.202 61.3741C945.753 61.3793 960.442 60.95 974.978 61.474Q974.774 77.65 974.931 93.8262C974.946 99.5313 975.345 105.612 974.655 111.279C981.678 116.973 986.514 123.531 987.501 132.745Q987.579 133.485 987.62 134.228Q987.661 134.971 987.664 135.715Q987.668 136.459 987.634 137.202Q987.601 137.945 987.53 138.686Q987.459 139.426 987.351 140.162Q987.243 140.899 987.098 141.628Q986.954 142.358 986.773 143.08Q986.592 143.801 986.375 144.513Q986.158 145.225 985.905 145.925Q985.653 146.625 985.366 147.311Q985.079 147.997 984.758 148.668Q984.436 149.34 984.082 149.994Q983.728 150.648 983.341 151.284Q982.954 151.919 982.536 152.535Q982.118 153.15 981.67 153.744Q981.222 154.337 980.744 154.908C978.836 157.189 976.56 159.128 974.182 160.899C975.437 169.584 974.534 185.959 974.563 195.474C974.628 217.556 975.346 240.003 974.345 262.057C976.134 263.932 978.086 265.718 979.302 268.027C979.215 268.583 979.174 269.039 978.927 269.55C977.609 270.359 977.303 270.726 976.912 272.241C975.476 277.797 975.363 281.714 970.14 285.372C960.386 292.204 943.188 291.875 931.577 293.43C909.77 296.351 877.389 303.961 872.44 329.549C870.808 337.984 873.285 347.272 878.24 354.191C878.5 354.555 878.775 354.907 879.049 355.259C868.48 360.202 856.174 363.732 844.678 365.671Q842.401 366.063 840.112 366.386Q837.824 366.709 835.527 366.962Q833.23 367.216 830.927 367.4Q828.623 367.584 826.315 367.698Q824.007 367.812 821.696 367.856Q819.386 367.9 817.075 367.875Q814.764 367.849 812.456 367.753Q810.147 367.657 807.842 367.492Q805.537 367.327 803.238 367.091Q800.939 366.856 798.648 366.552Q796.357 366.247 794.077 365.873Q791.796 365.5 789.528 365.057Q787.26 364.614 785.006 364.103Q782.753 363.592 780.516 363.013Q778.278 362.434 776.06 361.788Q773.841 361.141 771.643 360.428C764.837 358.207 757.905 355.605 752.074 351.357C746.294 347.146 741.827 341.368 739.688 334.506C736.67 324.826 737.534 313.303 737.512 303.226L737.55 241.421C737.533 231.711 738.444 221.16 736.91 211.609C733.971 193.323 724.762 200.51 719.368 196.106C719.152 195.929 718.948 195.737 718.737 195.553C714.035 196.424 710.088 196.729 705.343 196.052C702.484 198.136 696.983 197.752 693.515 197.24L693.503 190.835L693.736 188.44C693.261 184.84 693.872 180.515 693.911 176.82C694.021 166.403 694.387 155.874 693.474 145.488L693.675 142.279C693.122 115.316 693.668 88.331 693.277 61.3674L779.033 61.2797Z"/>
	<path fill="#D7E4F3" d="M693.675 142.279C701.843 137.426 709.54 134.685 719.028 137.136Q719.755 137.331 720.472 137.562Q721.189 137.794 721.893 138.06Q722.598 138.326 723.288 138.626Q723.979 138.926 724.654 139.261Q725.329 139.595 725.986 139.961Q726.644 140.328 727.283 140.727Q727.921 141.126 728.54 141.556Q729.158 141.986 729.755 142.445Q730.351 142.905 730.924 143.393Q731.497 143.882 732.046 144.398Q732.594 144.914 733.116 145.457Q733.639 145.999 734.134 146.567Q734.628 147.134 735.095 147.726Q735.561 148.317 735.998 148.93Q736.435 149.544 736.841 150.178Q737.247 150.812 737.621 151.466Q737.991 152.121 738.328 152.794Q738.665 153.467 738.967 154.156Q739.27 154.845 739.538 155.549Q739.805 156.252 740.037 156.968Q740.269 157.684 740.464 158.41Q740.66 159.137 740.819 159.873Q740.977 160.608 741.099 161.351Q741.22 162.094 741.305 162.842Q741.389 163.589 741.435 164.341Q741.481 165.092 741.49 165.844Q741.498 166.597 741.469 167.349Q741.44 168.101 741.372 168.85Q741.305 169.6 741.201 170.345Q741.096 171.09 740.954 171.829Q740.812 172.568 740.633 173.299Q740.454 174.03 740.238 174.751C738.003 182.417 732.918 189.058 725.804 192.791C723.543 193.977 721.165 194.786 718.737 195.553C714.035 196.424 710.088 196.729 705.343 196.052C702.484 198.136 696.983 197.752 693.515 197.24L693.503 190.835L693.736 188.44C693.261 184.84 693.872 180.515 693.911 176.82C694.021 166.403 694.387 155.874 693.474 145.488L693.675 142.279Z"/>
	<path d="M693.675 142.279C701.843 137.426 709.54 134.685 719.028 137.136Q719.755 137.331 720.472 137.562Q721.189 137.794 721.893 138.06Q722.598 138.326 723.288 138.626Q723.979 138.926 724.654 139.261Q725.329 139.595 725.986 139.961Q726.644 140.328 727.283 140.727Q727.921 141.126 728.54 141.556Q729.158 141.986 729.755 142.445Q730.351 142.905 730.924 143.393Q731.497 143.882 732.046 144.398Q732.594 144.914 733.116 145.457Q733.639 145.999 734.134 146.567Q734.628 147.134 735.095 147.726Q735.561 148.317 735.998 148.93Q736.435 149.544 736.841 150.178Q737.247 150.812 737.621 151.466Q737.991 152.121 738.328 152.794Q738.665 153.467 738.967 154.156Q739.27 154.845 739.538 155.549Q739.805 156.252 740.037 156.968Q740.269 157.684 740.464 158.41Q740.66 159.137 740.819 159.873Q740.977 160.608 741.099 161.351Q741.22 162.094 741.305 162.842Q741.389 163.589 741.435 164.341Q741.481 165.092 741.49 165.844Q741.498 166.597 741.469 167.349Q741.44 168.101 741.372 168.85Q741.305 169.6 741.201 170.345Q741.096 171.09 740.954 171.829Q740.812 172.568 740.633 173.299Q740.454 174.03 740.238 174.751C738.003 182.417 732.918 189.058 725.804 192.791C723.543 193.977 721.165 194.786 718.737 195.553C714.035 196.424 710.088 196.729 705.343 196.052C702.484 198.136 696.983 197.752 693.515 197.24L693.503 190.835L693.736 188.44C697.068 190.533 700.693 192.282 704.529 193.216Q705.222 193.379 705.923 193.507Q706.624 193.635 707.33 193.728Q708.036 193.821 708.746 193.879Q709.456 193.937 710.168 193.959Q710.88 193.982 711.592 193.969Q712.304 193.955 713.015 193.907Q713.725 193.858 714.433 193.774Q715.14 193.69 715.842 193.571Q716.545 193.452 717.24 193.298Q717.936 193.144 718.622 192.956Q719.309 192.767 719.986 192.545Q720.663 192.322 721.328 192.066Q721.992 191.81 722.643 191.522Q723.295 191.233 723.931 190.912Q724.567 190.592 725.186 190.24Q725.805 189.887 726.406 189.505Q726.973 189.139 727.522 188.746Q728.071 188.353 728.599 187.932Q729.127 187.512 729.634 187.066Q730.141 186.621 730.625 186.15Q731.109 185.68 731.57 185.186Q732.03 184.692 732.465 184.176Q732.9 183.66 733.309 183.123Q733.718 182.586 734.1 182.03Q734.482 181.473 734.836 180.898Q735.19 180.323 735.515 179.732Q735.839 179.14 736.135 178.533Q736.43 177.926 736.694 177.305Q736.959 176.684 737.193 176.05Q737.426 175.417 737.628 174.773Q737.83 174.129 737.999 173.475Q738.169 172.822 738.306 172.161C739.872 164.798 738.708 156.876 734.395 150.617C730.249 144.601 723.23 140.35 716.046 139.081C707.614 137.593 700.225 140.782 693.474 145.488L693.675 142.279Z"/>
	<path fill="#D7E4F3" d="M693.503 190.835C697.359 193.29 700.954 194.807 705.343 196.052C702.484 198.136 696.983 197.752 693.515 197.24L693.503 190.835Z"/>
	<path d="M779.033 61.2797C780.945 52.9 784.902 45.977 792.307 41.2553Q792.957 40.8397 793.627 40.4574Q794.297 40.0751 794.986 39.7271Q795.675 39.3791 796.38 39.0661Q797.085 38.7532 797.805 38.4763Q798.526 38.1993 799.259 37.9589Q799.992 37.7186 800.736 37.5155Q801.481 37.3124 802.234 37.147Q802.988 36.9817 803.749 36.8545Q804.51 36.7274 805.276 36.6387Q806.043 36.55 806.813 36.5001Q807.583 36.4502 808.354 36.4391Q809.126 36.428 809.897 36.4558Q810.668 36.4836 811.436 36.5502Q812.205 36.6168 812.97 36.7221Q813.734 36.8273 814.492 36.9709Q815.25 37.1146 816 37.2962C823.406 39.041 830.149 43.7949 834.119 50.2977C836.245 53.7793 837.307 57.459 838.208 61.4015C838.453 63.6368 838.56 66.0503 838.408 68.3004C837.885 76.0691 833.832 83.2059 827.936 88.1732Q827.357 88.6631 826.753 89.1234Q826.15 89.5836 825.525 90.0132Q824.9 90.4428 824.254 90.8407Q823.608 91.2385 822.942 91.6035Q822.277 91.9686 821.595 92.3Q820.912 92.6314 820.214 92.9282Q819.516 93.2251 818.804 93.4867Q818.092 93.7484 817.367 93.9741Q816.643 94.1998 815.908 94.3891Q815.173 94.5784 814.43 94.7307Q813.687 94.883 812.937 94.9981Q812.187 95.1131 811.432 95.1905Q810.678 95.2679 809.92 95.3075Q809.162 95.3472 808.404 95.3489Q807.645 95.3506 806.887 95.3144Q806.129 95.2783 805.374 95.2043Q804.641 95.1365 803.911 95.0324Q803.182 94.9283 802.459 94.7882Q801.736 94.6481 801.02 94.4723Q800.305 94.2966 799.599 94.0856Q798.893 93.8746 798.199 93.629Q797.504 93.3833 796.823 93.1035Q796.141 92.8237 795.475 92.5105Q794.808 92.1973 794.158 91.8515Q793.507 91.5056 792.875 91.128Q792.242 90.7504 791.629 90.3419Q791.016 89.9333 790.424 89.4949Q789.832 89.0566 789.263 88.5894Q788.693 88.1222 788.147 87.6274Q787.602 87.1326 787.081 86.6114Q786.561 86.0902 786.066 85.5438Q785.572 84.9974 785.106 84.4272C779.509 77.5524 778.151 69.802 779.033 61.2797Z"/>
	<path fill="#D7E4F3" d="M805.624 39.1593C811.449 38.7182 817.058 39.3337 822.249 42.2459Q822.817 42.5692 823.368 42.9197Q823.919 43.2702 824.453 43.6472Q824.986 44.0241 825.501 44.4266Q826.015 44.8291 826.509 45.2562Q827.004 45.6833 827.476 46.1339Q827.949 46.5845 828.4 47.0577Q828.85 47.5308 829.277 48.0253Q829.704 48.5199 830.106 49.0346Q830.508 49.5493 830.885 50.083Q831.261 50.6167 831.612 51.1681Q831.962 51.7195 832.285 52.2873Q832.608 52.8551 832.903 53.4379Q833.198 54.0208 833.464 54.6173Q833.73 55.2139 833.967 55.8227Q834.204 56.4314 834.411 57.0511Q834.618 57.6707 834.794 58.2996C836.746 65.3143 836.003 73.2376 832.181 79.4948C827.751 86.746 820.989 90.4095 813.021 92.4353C806.074 93.397 799.289 92.2488 793.343 88.3626Q792.793 88.0044 792.261 87.6194Q791.729 87.2344 791.217 86.8236Q790.705 86.4128 790.214 85.9772Q789.723 85.5416 789.253 85.0823Q788.784 84.623 788.339 84.141Q787.893 83.659 787.471 83.1556Q787.05 82.6522 786.654 82.1286Q786.258 81.605 785.888 81.0625Q785.518 80.5199 785.176 79.9598Q784.833 79.3996 784.519 78.8232Q784.205 78.2469 783.919 77.6556Q783.634 77.0644 783.378 76.4598Q783.122 75.8552 782.896 75.2387Q782.671 74.6222 782.476 73.9953Q782.281 73.3684 782.117 72.7326Q781.953 72.0968 781.821 71.4537Q781.687 70.7816 781.587 70.1035Q781.488 69.4255 781.422 68.7433Q781.357 68.0611 781.326 67.3764Q781.295 66.6917 781.299 66.0064Q781.303 65.3211 781.342 64.6368Q781.38 63.9526 781.453 63.2712Q781.526 62.5897 781.634 61.9129Q781.741 61.236 781.883 60.5654Q782.024 59.8949 782.2 59.2323Q782.375 58.5697 782.583 57.9169Q782.792 57.264 783.033 56.6226Q783.274 55.9811 783.548 55.3526Q783.821 54.7242 784.126 54.1104Q784.431 53.4965 784.766 52.8989Q785.102 52.3012 785.467 51.7213Q785.832 51.1414 786.226 50.5807C790.88 43.9766 797.798 40.3822 805.624 39.1593Z"/>
	<path d="M941.24 161.888C935.185 157.135 930.394 151.199 928.191 143.727C925.978 136.222 927.015 128.355 930.822 121.564Q931.195 120.903 931.6 120.26Q932.005 119.618 932.441 118.997Q932.877 118.375 933.343 117.776Q933.809 117.177 934.305 116.601Q934.8 116.026 935.323 115.476Q935.846 114.925 936.396 114.402Q936.945 113.878 937.52 113.382Q938.095 112.886 938.694 112.419Q939.292 111.952 939.913 111.515Q940.534 111.078 941.176 110.672Q941.818 110.267 942.479 109.893Q943.14 109.52 943.818 109.179Q944.497 108.839 945.192 108.533Q945.886 108.226 946.595 107.954Q947.304 107.682 948.025 107.446Q948.747 107.21 949.479 107.009C958.565 104.592 966.742 106.675 974.655 111.279C981.678 116.973 986.514 123.531 987.501 132.745Q987.579 133.485 987.62 134.228Q987.661 134.971 987.664 135.715Q987.668 136.459 987.634 137.202Q987.601 137.945 987.53 138.686Q987.459 139.426 987.351 140.162Q987.243 140.899 987.098 141.628Q986.954 142.358 986.773 143.08Q986.592 143.801 986.375 144.513Q986.158 145.225 985.905 145.925Q985.653 146.625 985.366 147.311Q985.079 147.997 984.758 148.668Q984.436 149.34 984.082 149.994Q983.728 150.648 983.341 151.284Q982.954 151.919 982.536 152.535Q982.118 153.15 981.67 153.744Q981.222 154.337 980.744 154.908C978.836 157.189 976.56 159.128 974.182 160.899C975.437 169.584 974.534 185.959 974.563 195.474C974.628 217.556 975.346 240.003 974.345 262.057C976.134 263.932 978.086 265.718 979.302 268.027C979.215 268.583 979.174 269.039 978.927 269.55C973.825 268.318 972.195 258.662 956.751 258.891C946.233 259.046 934.333 265.844 931.476 276.499C930.509 280.104 931.237 289.485 928.87 291.944C926.927 290.755 927.525 285.982 925.505 284.071C923.113 281.809 919.697 279.805 917 277.832Q904.226 268.454 891.048 259.653C884.184 268.695 876.055 275.271 866.291 280.938C865.891 294.759 869.467 314.142 859.108 324.873Q858.649 325.342 858.168 325.787Q857.686 326.232 857.183 326.652Q856.68 327.073 856.156 327.467Q855.632 327.862 855.089 328.229Q854.546 328.597 853.985 328.937Q853.425 329.277 852.847 329.588Q852.27 329.899 851.678 330.181Q851.086 330.463 850.48 330.715Q849.875 330.966 849.257 331.187Q848.64 331.408 848.012 331.598Q847.385 331.787 846.748 331.945Q846.112 332.103 845.468 332.228Q844.824 332.354 844.175 332.447Q843.526 332.54 842.873 332.6Q842.22 332.66 841.565 332.687Q840.91 332.715 840.254 332.709Q839.599 332.704 838.944 332.668Q838.29 332.632 837.638 332.563Q836.986 332.495 836.339 332.395Q835.691 332.295 835.049 332.164Q834.407 332.032 833.772 331.87Q833.137 331.707 832.511 331.514Q831.885 331.32 831.269 331.097Q830.653 330.873 830.048 330.62Q829.444 330.366 828.853 330.084Q828.261 329.801 827.685 329.49Q827.108 329.179 826.547 328.841Q825.986 328.502 825.442 328.136Q824.898 327.771 824.373 327.379Q823.847 326.987 823.342 326.57Q822.836 326.153 822.351 325.712Q821.867 325.271 821.404 324.807Q820.295 323.7 819.342 322.457Q818.389 321.213 817.609 319.854Q816.828 318.496 816.235 317.046Q815.641 315.596 815.244 314.08C813.191 306.064 814.473 290.141 814.497 281.522Q812.603 280.623 810.77 279.605Q808.937 278.586 807.173 277.454Q805.408 276.321 803.72 275.078Q802.031 273.836 800.424 272.488Q798.818 271.141 797.301 269.693Q795.784 268.246 794.361 266.706Q792.939 265.165 791.618 263.537Q790.297 261.909 789.082 260.2C779.465 246.579 776.457 229.48 779.444 213.199C782.399 197.087 792.431 183.108 805.87 173.951Q807.132 173.097 808.435 172.306Q809.738 171.515 811.079 170.789Q812.419 170.063 813.793 169.405Q815.168 168.746 816.573 168.156Q817.978 167.565 819.411 167.045Q820.844 166.525 822.3 166.076Q823.757 165.627 825.234 165.251Q826.711 164.874 828.205 164.571Q829.698 164.268 831.205 164.039Q832.712 163.809 834.229 163.655Q835.745 163.5 837.267 163.421Q838.789 163.341 840.313 163.337Q841.837 163.332 843.36 163.403Q844.883 163.474 846.4 163.619Q847.917 163.765 849.425 163.985Q850.934 164.206 852.429 164.5C867.038 167.377 881.089 175.979 889.803 188.088C893.126 192.706 895.717 197.815 898.874 202.55C919.34 195.553 931.213 180.291 941.24 161.888Z"/>
	<path fill="#D7E4F3" d="M816.817 301.477C832.359 301.036 848.035 301.26 863.584 301.507C863.759 310.237 863.114 316.425 857.191 323.313C852.653 327.527 846.583 330.133 840.364 330.22C834.04 330.307 828.009 327.637 823.584 323.153C817.322 316.808 816.77 309.855 816.817 301.477Z"/>
	<path fill="#D7E4F3" d="M955.752 108.648C962.22 108.165 969.421 110.328 974.594 114.199Q975.118 114.591 975.622 115.009Q976.125 115.427 976.608 115.869Q977.091 116.311 977.551 116.776Q978.012 117.241 978.449 117.728Q978.886 118.215 979.299 118.723Q979.711 119.231 980.099 119.759Q980.486 120.286 980.847 120.832Q981.208 121.378 981.542 121.941Q981.875 122.504 982.181 123.083Q982.487 123.662 982.763 124.255Q983.04 124.848 983.288 125.454Q983.535 126.06 983.753 126.677Q983.97 127.294 984.157 127.922Q984.344 128.549 984.5 129.184Q984.656 129.82 984.781 130.463Q984.905 131.105 984.998 131.753C986.035 139.115 983.844 146.854 979.341 152.744C974.395 159.214 967.527 162.223 959.686 163.239C953.295 163.535 946.322 162.043 941.05 158.344C935.071 154.15 931.096 147.172 930.023 140.003Q929.923 139.319 929.858 138.632Q929.793 137.944 929.763 137.254Q929.733 136.564 929.737 135.873Q929.742 135.182 929.781 134.492Q929.821 133.803 929.895 133.116Q929.969 132.429 930.078 131.747Q930.187 131.065 930.33 130.389Q930.473 129.713 930.65 129.045Q930.827 128.378 931.037 127.72Q931.248 127.062 931.491 126.415Q931.734 125.769 932.01 125.135Q932.286 124.502 932.593 123.883Q932.901 123.265 933.239 122.662Q933.577 122.06 933.945 121.475Q934.313 120.891 934.711 120.326Q935.108 119.76 935.533 119.216C940.726 112.525 947.655 109.71 955.752 108.648Z"/>
	<path fill="#F6AFA4" d="M816.921 243.348C832.526 243.001 848.217 243.284 863.83 243.431L863.626 298.844C858.434 299.18 853.034 298.868 847.824 298.849L817.018 298.732L816.921 243.348Z"/>
	<path fill="#D7E4F3" d="M974.182 160.899C975.437 169.584 974.534 185.959 974.563 195.474C974.628 217.556 975.346 240.003 974.345 262.057C971.146 259.879 968.003 258.165 964.251 257.166Q963.56 256.985 962.861 256.839Q962.162 256.692 961.457 256.58Q960.751 256.468 960.041 256.391Q959.331 256.314 958.618 256.271Q957.905 256.229 957.191 256.222Q956.477 256.215 955.763 256.243Q955.05 256.271 954.338 256.334Q953.627 256.397 952.919 256.494Q952.212 256.592 951.51 256.725Q950.808 256.857 950.114 257.024Q949.419 257.191 948.734 257.392Q948.048 257.592 947.374 257.826Q946.699 258.061 946.036 258.328Q945.374 258.595 944.725 258.894Q944.077 259.193 943.444 259.524Q942.811 259.855 942.195 260.216C933.379 265.353 929.846 272.765 927.265 282.327C916.25 273.391 903.974 266.111 892.957 257.158C902.593 238.419 904.098 225.518 899.653 205.022C920.798 197.808 933.142 181.789 943.501 162.931Q945.769 163.709 948.062 164.408C957.468 167.22 965.709 165.414 974.182 160.899Z"/>
	<path fill="#F6AFA4" d="M834.714 166.193C840.966 165.625 847.737 165.955 853.863 167.386Q855.329 167.734 856.777 168.154Q858.224 168.575 859.648 169.067Q861.072 169.559 862.47 170.122Q863.868 170.685 865.236 171.317Q866.604 171.949 867.939 172.649Q869.274 173.349 870.572 174.114Q871.87 174.88 873.128 175.709Q874.386 176.539 875.601 177.43Q876.817 178.321 877.986 179.272Q879.155 180.223 880.275 181.232Q881.395 182.24 882.463 183.303Q883.531 184.366 884.545 185.481Q885.559 186.596 886.516 187.76Q887.473 188.924 888.37 190.135Q889.268 191.346 890.103 192.6Q890.939 193.854 891.711 195.148Q892.424 196.346 893.077 197.578Q893.731 198.81 894.323 200.072Q894.915 201.334 895.444 202.624Q895.974 203.914 896.44 205.228Q896.905 206.542 897.306 207.878Q897.706 209.213 898.041 210.567Q898.376 211.92 898.644 213.289Q898.912 214.657 899.112 216.037Q899.313 217.417 899.445 218.804Q899.578 220.192 899.642 221.585Q899.707 222.978 899.703 224.372Q899.698 225.767 899.626 227.159Q899.554 228.551 899.413 229.939Q899.273 231.326 899.064 232.704Q898.856 234.083 898.58 235.45Q898.304 236.816 897.962 238.168C893.525 256.093 882.043 268.791 866.456 278.117C866.285 271.632 867.345 228.189 866.261 226.229C866.061 225.867 865.683 225.638 865.394 225.342L864.431 225.493C863.086 228.276 863.89 237.083 863.892 240.553L845.25 240.606L816.843 240.728C816.798 236.51 817.503 231.405 816.621 227.309C816.384 226.205 816.43 226.067 815.442 225.451L814.473 226.209C812.98 230.827 814.226 271.021 814.287 279.107C810.453 276.837 806.713 274.423 803.265 271.591C790.791 261.344 782.601 247.375 781.079 231.207Q780.93 229.753 780.852 228.294Q780.775 226.835 780.77 225.373Q780.766 223.912 780.833 222.452Q780.901 220.992 781.041 219.538Q781.181 218.083 781.393 216.637Q781.605 215.191 781.888 213.757Q782.171 212.324 782.525 210.906Q782.879 209.488 783.303 208.089Q783.727 206.691 784.22 205.315Q784.713 203.939 785.273 202.589Q785.833 201.24 786.46 199.919Q787.086 198.599 787.778 197.312Q788.469 196.024 789.223 194.772Q789.977 193.521 790.792 192.308Q791.608 191.095 792.482 189.924Q793.357 188.753 794.288 187.627Q795.225 186.497 796.215 185.415Q797.206 184.333 798.248 183.3Q799.29 182.267 800.382 181.287Q801.473 180.306 802.612 179.38Q803.75 178.454 804.932 177.584Q806.114 176.715 807.337 175.905Q808.56 175.094 809.821 174.344Q811.082 173.594 812.379 172.907Q813.675 172.22 815.003 171.596Q816.332 170.973 817.689 170.416Q819.046 169.858 820.429 169.368Q821.812 168.877 823.217 168.455Q824.622 168.032 826.046 167.679Q827.47 167.326 828.91 167.043Q830.35 166.759 831.802 166.547Q833.253 166.334 834.714 166.193Z"/>
	<path d="M501.237 288.062C504.903 284.488 511.092 282.367 515.486 279.624C525.212 273.551 531.831 266.36 539.233 257.88C540.045 259.996 541.029 262.31 541.416 264.546C541.633 265.801 541.525 266.429 540.771 267.419L539.093 267.31C539.815 267.682 540.775 267.852 540.992 268.685C541.993 272.543 541.559 301.829 540.811 306.444C540.265 309.806 539.168 313.041 537.344 315.932C534.605 320.272 530.623 323.27 525.781 324.9C524.535 325.32 522.878 325.63 521.853 326.437C521.727 326.536 521.549 326.619 521.509 326.775C521.211 327.92 521.481 330.195 521.471 331.439L521.581 351.361C537.126 361.608 545.608 374.795 549.351 392.99C552.224 406.956 569.055 499.434 572.508 505.033Q572.893 504.514 573.285 504.001C579.214 496.246 586.371 494.591 595.539 493.388C605.325 497.158 633.868 493.799 646.31 495.28C655.116 496.098 664.156 495.78 672.998 495.759L714.514 495.68L775.12 495.879C788.528 495.927 801.992 496.176 815.391 495.619L816.046 497.242L816.379 498.238C815.867 499.2 815.748 499.38 814.646 499.742C812.607 500.411 809.962 500.334 807.815 500.328C802.156 512.165 801.832 524.254 806.037 536.651C806.623 538.262 806.679 538.872 808.054 539.953C810.451 540.45 812.7 540.009 815.078 540.313C815.606 541.468 815.625 541.457 815.299 542.68C813.589 543.804 811.261 543.524 809.291 543.396C799.947 543.719 790.497 543.461 781.142 543.484L739.719 543.633L739.893 545.495L739.602 546.948C738.101 547.905 736.622 547.617 735.151 548.286L735.793 548.971C734.284 552.438 732.532 555.589 731.697 559.337C730.327 565.494 731.763 575.226 733.986 581.077C734.512 582.46 735.379 583.724 735.88 585.083C737.468 586.249 739.31 587.38 740.657 588.815L741.293 589.788C741.02 590.574 740.919 590.903 740.086 591.221C737.445 592.231 709.351 592.051 705.133 591.563L697.467 591.898C690.102 602.433 682.506 618.345 668.784 620.721C661.624 621.961 653.768 621.609 646.502 621.868Q626.023 622.488 605.561 623.549L669.101 830.909C670.854 836.81 683.761 876.397 683.017 877.826C677.873 881.061 671.281 881.929 665.758 884.451C673.637 887.28 728.481 905.838 730.492 909.353C731.332 910.82 731.646 912.918 731.014 914.496C729.396 918.534 723.222 919.904 719.496 921.079L624.567 951.153C614.778 954.207 605.09 957.543 595.264 960.485C592.47 961.322 589.497 962.541 586.677 963.169C585.359 963.463 583.719 963.32 582.561 962.601C580.895 961.566 579.802 959.2 579.089 957.463C577.384 953.31 576.386 948.681 575.181 944.354C572.589 935.038 570.216 925.605 567.079 916.456C563.683 917.388 560.265 918.442 556.802 919.075C552.103 903.555 548.326 887.622 544.615 871.84C542.785 864.057 540.582 856.172 539.191 848.307C523.661 849.423 488.737 862.803 473.226 868.357C468.312 870.117 463.21 872.643 458.2 873.896Q454.996 887.972 451.427 901.959C450.265 906.545 449.285 911.495 447.601 915.914L416.647 916.067C424.845 923.571 432.639 931.474 440.768 939.045C448.003 945.784 455.953 952.404 462.631 959.697C463.495 960.641 464.794 962.202 464.817 963.536C464.838 964.822 464.445 966.377 464.219 967.651C472.969 968.765 482.682 967.879 491.557 967.863L549.237 967.76L865.367 967.603L966.596 967.627C980.488 967.653 994.534 967.047 1008.4 967.503C1010.16 967.561 1012.42 967.536 1013.91 968.589C1013.16 969.61 1012.1 969.667 1010.86 969.875C1003.95 971.041 995.482 970.034 988.41 970.04L930.323 969.865L731.049 970.027L233.556 970.251Q121.852 970.723 10.1468 969.982L9.5692 969.49L9.69857 968.217C14.1349 966.48 94.0606 967.581 106.174 967.523C123.327 967.888 140.537 967.656 157.698 967.684C207.08 967.765 256.474 967.269 305.853 967.897Q305.634 944.772 305.726 921.646C305.743 919.342 305.779 918.145 304.065 916.462C303.98 916.379 303.288 915.737 303.204 915.605C302.769 914.931 302.802 914.543 302.914 913.795C303.751 908.23 305.569 902.74 307.052 897.313L313.909 871.708C318.637 853.57 323.832 835.586 328.738 817.499C333.057 801.572 337.05 785.588 341.766 769.769C349.446 739.057 358.507 708.578 367.026 678.087C365.399 677.88 363.547 677.917 362.259 676.882C363.609 667.769 368.142 655.353 370.784 646.161Q380.447 612.248 390.589 578.475C382.685 578.638 374.918 578.876 367.178 576.948Q365.849 576.623 364.537 576.232Q363.226 575.842 361.935 575.386Q360.645 574.93 359.378 574.411Q358.112 573.892 356.873 573.31Q355.634 572.729 354.426 572.087Q353.218 571.444 352.043 570.742Q350.868 570.04 349.729 569.281Q348.591 568.522 347.491 567.706Q346.392 566.891 345.335 566.023Q344.277 565.154 343.264 564.234Q342.252 563.313 341.286 562.344Q340.32 561.374 339.404 560.358Q338.487 559.341 337.622 558.28Q336.758 557.22 335.947 556.117Q335.136 555.015 334.381 553.873Q333.626 552.732 332.929 551.554C319.948 529.57 326.9 509.48 332.566 486.75L341.542 450.583C339.186 450.735 336.536 451.425 334.305 450.519L333.971 449.65C336.215 444.048 341.547 439.367 344.415 433.863C347.864 427.244 347.922 417.035 353.113 411.633C354.995 409.675 357.491 408.095 360.173 407.547C366.917 406.167 374.919 407.157 381.799 407.26Q403.991 407.729 426.186 407.903C434.131 382.235 447.539 347.748 471.968 334.185C476.674 332.151 480.294 331.416 485.411 331.368C485.697 322.371 485.585 313.334 485.509 304.334C482.725 300.585 480.398 297.051 480.537 292.145C480.631 288.85 481.957 285.571 484.507 283.42C486.532 281.713 489.139 280.913 491.767 281.315C495.828 281.935 498.895 284.9 501.237 288.062Z"/>
	<path fill="#78A1E3" d="M738.901 543.262L739.719 543.633L739.893 545.495C728.283 546.289 716.473 545.927 704.839 545.885L648.837 545.683L604.377 545.665C595.967 545.66 587.093 546.178 578.746 545.247L579.244 542.987C580.549 543.418 581.681 543.646 583.053 543.711C595.882 544.316 608.918 543.87 621.764 543.826L681.343 543.881L717.525 543.909C724.193 543.91 732.414 544.711 738.901 543.262Z"/>
	<path fill="#8AB9E6" d="M639.592 536.97C654.174 537.488 668.874 537.081 683.469 537.061C724.307 537.005 765.212 536.066 806.037 536.651C806.623 538.262 806.679 538.872 808.054 539.953C810.451 540.45 812.7 540.009 815.078 540.313Q808.605 540.463 802.13 540.518C788.783 540.156 775.366 540.468 762.009 540.471C742.587 540.477 723.149 540.311 703.729 540.571C684.395 539.142 663.335 541.29 643.747 539.979C642.262 539.077 640.946 538.056 639.592 536.97Z"/>
	<path fill="white" d="M488.167 306.5L492.768 307.606C495.302 314.69 498.569 320.295 505.6 323.796C509.915 325.944 514.405 326.608 519.189 326.599C518.878 334.367 518.945 342.133 518.981 349.905C507.407 345.555 496.035 344.065 484.044 347.668C481.012 343.638 478.349 340.164 477.063 335.168C480.597 334.266 484.119 334.106 487.753 334.085C488.142 324.902 488.093 315.69 488.167 306.5Z"/>
	<path fill="white" d="M625.066 592Q647.181 591.648 669.297 591.993C668.792 593.721 668.081 595.625 667.839 597.402C667.676 598.599 667.801 599.247 668.577 600.183C671.438 600.042 676.025 594.144 678.045 592.022L693.791 592.02C688.752 599.646 683.87 607.963 677.159 614.227C675.197 615.795 673.061 617.046 670.599 617.638C662.419 619.605 652.795 619.117 644.382 619.402Q624.424 620.243 604.453 620.69C611.12 610.993 618.324 601.652 625.066 592Z"/>
	<path fill="white" d="M501.237 288.062C504.903 284.488 511.092 282.367 515.486 279.624C525.212 273.551 531.831 266.36 539.233 257.88C540.045 259.996 541.029 262.31 541.416 264.546C541.633 265.801 541.525 266.429 540.771 267.419L539.093 267.31C539.013 267.613 538.927 267.915 538.853 268.22C538.222 270.83 538.508 274.105 538.531 276.812C538.646 290.516 542.573 311.493 529.667 319.97Q529.205 320.278 528.729 320.563Q528.253 320.847 527.762 321.108Q527.272 321.368 526.77 321.604Q526.267 321.839 525.754 322.049Q525.24 322.26 524.717 322.444Q524.193 322.628 523.661 322.786Q523.129 322.944 522.59 323.075Q522.05 323.206 521.505 323.31Q520.96 323.413 520.41 323.49Q519.861 323.566 519.308 323.615Q518.755 323.664 518.2 323.685Q517.646 323.706 517.091 323.7Q516.536 323.693 515.982 323.659Q515.428 323.625 514.877 323.563Q514.325 323.501 513.777 323.411Q513.23 323.322 512.687 323.205C506.7 321.921 501.834 319.035 498.497 313.809C496.678 310.96 495.673 307.965 494.871 304.71C491.101 304.313 488.881 303.88 486.357 300.791C484.227 298.181 482.883 294.534 483.25 291.145C483.509 288.765 484.62 286.722 486.541 285.286C487.857 284.304 489.368 283.719 491.039 284.036C494.608 284.714 497.982 289.857 501.237 288.062Z"/>
	<path fill="#78A1E3" d="M595.539 493.388C605.325 497.158 633.868 493.799 646.31 495.28C655.116 496.098 664.156 495.78 672.998 495.759L714.514 495.68L775.12 495.879C788.528 495.927 801.992 496.176 815.391 495.619L816.046 497.242C804.305 498.005 792.339 497.542 780.569 497.538L719.733 497.52L673.533 497.596C665.223 497.618 656.498 498.171 648.24 497.426C643.603 497.413 640.443 498.443 637.028 501.766C632.277 506.39 629.708 513.943 629.696 520.518C629.685 526.817 632.4 533.643 636.839 538.149C637.655 538.977 638.543 539.737 639.428 540.489L613.062 540.54C605.603 540.578 596.985 541.468 589.743 539.54Q588.037 539.073 586.405 538.392Q584.773 537.711 583.241 536.827Q581.709 535.943 580.303 534.87Q578.897 533.797 577.64 532.553C573.976 528.904 570.974 523.262 571.041 517.995C571.09 514.236 573.617 508.199 572.508 505.033Q572.893 504.514 573.285 504.001C579.214 496.246 586.371 494.591 595.539 493.388Z"/>
	<path fill="white" d="M642.825 500.524C662.189 499.932 681.671 500.354 701.047 500.349L807.815 500.328C802.156 512.165 801.832 524.254 806.037 536.651C765.212 536.066 724.307 537.005 683.469 537.061C668.874 537.081 654.174 537.488 639.592 536.97C638.843 536.14 638.095 535.308 637.403 534.428C633.575 529.558 631.71 522.91 632.631 516.778C633.624 510.171 637.453 504.389 642.825 500.524Z"/>
	<path fill="white" d="M567.342 568.745Q566.839 566.148 566.712 563.505C566.54 559.335 567.427 554.08 570.48 550.987C572.619 548.821 575.396 548.591 578.303 548.342C583.807 547.871 589.499 548.203 595.027 548.233L624.619 548.339C661.407 548.446 698.381 549.207 735.151 548.286L735.793 548.971C734.284 552.438 732.532 555.589 731.697 559.337C730.327 565.494 731.763 575.226 733.986 581.077C734.512 582.46 735.379 583.724 735.88 585.083C737.468 586.249 739.31 587.38 740.657 588.815L741.293 589.788C741.02 590.574 740.919 590.903 740.086 591.221C737.445 592.231 709.351 592.051 705.133 591.563C699.837 588.699 693.107 589.774 687.283 589.41C681.765 589.049 676.019 589.325 670.473 589.297L636.662 589.121C625.137 589.053 613.398 589.592 602.298 585.989C589.759 583.481 576.681 577.595 567.342 568.745Z"/>
	<path fill="#8AB9E6" d="M602.298 585.989C608.768 584.753 616.765 585.499 623.428 585.424C642.986 585.204 662.507 585.547 682.062 585.543C699.914 585.539 718.084 583.925 735.88 585.083C737.468 586.249 739.31 587.38 740.657 588.815L741.293 589.788C741.02 590.574 740.919 590.903 740.086 591.221C737.445 592.231 709.351 592.051 705.133 591.563C699.837 588.699 693.107 589.774 687.283 589.41C681.765 589.049 676.019 589.325 670.473 589.297L636.662 589.121C625.137 589.053 613.398 589.592 602.298 585.989Z"/>
	<path fill="#00094E" d="M740.657 588.815L741.293 589.788C741.02 590.574 740.919 590.903 740.086 591.221C737.445 592.231 709.351 592.051 705.133 591.563C699.837 588.699 693.107 589.774 687.283 589.41C693.411 588.841 699.73 589.062 705.886 589.025C717.475 588.953 729.069 589.011 740.657 588.815Z"/>
	<path fill="#FED4CA" d="M458.2 873.896C460.726 860.882 464.406 848.028 467.633 835.175L482.084 776.557L495.573 721.883C497.918 712.47 499.743 702.434 503.002 693.306Q520.205 771.014 539.191 848.307C523.661 849.423 488.737 862.803 473.226 868.357C468.312 870.117 463.21 872.643 458.2 873.896Z"/>
	<path fill="#FED4CA" d="M428.076 410.448C430.016 404.336 431.982 398.205 434.28 392.217C442.649 370.407 454.651 345.122 477.063 335.168C478.349 340.164 481.012 343.638 484.044 347.668C481.699 348.516 479.41 349.417 477.183 350.546C466.886 355.766 458.17 364.743 452.62 374.805C445.915 386.961 442.048 401.132 438.095 414.406Q431.775 435.673 425.884 457.062Q417.199 487.691 408.138 518.211C402.654 537.306 397.508 556.559 391.387 575.462Q388.696 575.773 385.993 575.955C370.601 576.848 356.499 572.679 344.997 562.169Q344.044 561.293 343.135 560.372Q342.226 559.451 341.363 558.487Q340.501 557.522 339.686 556.517Q338.872 555.511 338.107 554.467Q337.343 553.423 336.63 552.342Q335.918 551.262 335.259 550.148Q334.6 549.034 333.997 547.89Q333.394 546.745 332.847 545.572Q332.3 544.399 331.811 543.201Q331.323 542.002 330.893 540.782Q330.464 539.561 330.095 538.321Q329.725 537.08 329.417 535.823Q329.109 534.567 328.863 533.296Q328.616 532.026 328.433 530.745Q328.249 529.464 328.128 528.175Q328.007 526.887 327.949 525.594Q327.81 522.212 328.07 518.837Q328.329 515.461 328.982 512.14C332.003 495.986 336.925 479.949 340.854 463.983C344.284 450.044 347.729 432.149 352.247 418.862C353.004 416.636 353.922 414.773 355.573 413.071C356.867 411.737 358.42 410.581 360.267 410.193C368.853 408.39 382.143 409.819 391.332 410.027Q409.701 410.463 428.076 410.448Z"/>
	<path fill="#F6AFA4" d="M493.619 363.64C495.819 363.419 498.194 363.413 500.39 363.683C513.91 365.347 524.607 374.946 528.98 387.625C532.947 399.125 531.517 412.821 531.497 424.841L531.424 468.951C531.411 478.509 530.998 488.231 531.978 497.741C534.358 520.839 542.035 543.883 556.627 562.19C572.206 581.737 598.022 589.725 621.925 592.518C616.625 598.753 612.008 605.6 607.172 612.197L584.005 643.747L579.452 650.674C560.432 645.355 541.353 637.777 525.07 626.481C492.4 603.816 474.51 568.576 467.681 530.191C461.686 496.492 462.61 462.972 462.557 428.917C462.54 417.655 461.405 403.356 463.3 392.458C464.202 387.27 466.351 382.463 469.392 378.171C475.334 369.783 483.653 365.362 493.619 363.64Z"/>
	<path fill="white" d="M507.021 678.051L617.883 678.035C622.196 689.047 625.432 700.672 629.027 711.946L652.343 786.62L670.519 843.86C673.945 854.573 678.202 865.359 680.384 876.393C670.243 880.416 659.406 883.219 649.004 886.537C618.727 896.187 588.816 907.518 558.321 916.386C556.195 909.901 554.94 902.997 553.263 896.368Q547.117 872.409 541.659 848.284L516.454 741.536L509.09 709.033C507.554 702.21 506.248 695.192 504.032 688.554C504.729 685.021 505.984 681.503 507.021 678.051Z"/>
	<path fill="#F6AFA4" d="M365.462 675.039Q393.847 574.655 423.71 474.702C430 453.374 435.377 431.782 441.998 410.543C444.793 401.58 447.436 392.402 451.291 383.834C457.667 369.663 467.46 356.672 482.524 351.142C493.733 347.028 507.032 347.418 517.857 352.558C528.619 357.667 537.109 367.925 542.055 378.58C546.551 388.265 547.918 398.994 549.952 409.378L557.133 446.506C559.566 458.656 561.87 470.836 564.431 482.959C566.046 490.605 568.103 498.303 569.297 506.016C570.277 512.348 566.782 518.137 569.286 524.681C571.424 530.268 575.751 536.37 581.297 538.855C581.413 538.907 582.327 539.293 582.464 539.376C583.256 539.858 583.672 540.075 583.903 540.944L583.439 541.365C583.192 541.385 582.945 541.398 582.698 541.424C581.065 541.598 580.273 541.745 579.244 542.987L578.746 545.247C577.677 545.169 576.552 545.207 575.488 545.323C572.381 545.659 569.999 547.046 568.096 549.523C564.314 554.446 563.881 561.031 564.498 566.948C546.175 547.949 536.928 521.384 534.749 495.403C533.842 484.589 534.136 473.608 534.143 462.761L534.183 419.872C534.192 407.073 535.337 393.584 529.518 381.756C525.087 372.749 517.466 365.805 507.898 362.648Q507.081 362.374 506.251 362.141Q505.421 361.907 504.58 361.715Q503.739 361.523 502.89 361.373Q502.041 361.223 501.186 361.115Q500.33 361.007 499.471 360.942Q498.611 360.877 497.749 360.854Q496.887 360.831 496.025 360.851Q495.163 360.871 494.303 360.934Q493.443 360.996 492.587 361.102Q491.732 361.207 490.882 361.354Q490.033 361.501 489.191 361.691Q488.35 361.88 487.519 362.111Q486.689 362.341 485.87 362.613Q485.052 362.885 484.248 363.196Q483.444 363.508 482.657 363.859Q481.869 364.21 481.1 364.6C471.945 369.289 464.342 378.392 461.353 388.245C458.557 397.461 459.92 419.341 459.936 429.826C460.017 481.347 457.401 534.251 481.965 581.409C496.599 609.502 520.409 630.511 549.326 643.063C559.354 647.416 569.829 650.613 580.242 653.892C587.833 643.705 594.79 633.072 602.573 623.019C607.846 640.447 614.179 657.64 618.964 675.202L365.462 675.039Z"/>
	<path fill="white" d="M369.522 677.963L504.028 678.022Q480.295 768.947 458.721 860.409C454.405 878.065 450.493 895.786 445.95 913.392L441.125 913.494L305.37 913.461C312.931 886.911 319.587 860.077 326.816 833.43L369.522 677.963Z"/>
	<path fill="#FED4CA" d="M304.668 218.045C330.684 211.637 356.85 197.985 376.223 179.303C383.776 172.018 390.471 163.597 397.275 155.61C408.396 142.553 419.632 129.704 434.582 120.842C459.479 106.082 490.076 105.659 516.307 117.133C529.779 123.025 542.013 131.817 554.227 139.908C570.706 150.824 586.867 161.274 604.726 169.829C625.093 179.586 646.898 187.568 668.92 192.644C677.039 194.515 685.456 195.203 693.515 197.24C696.983 197.752 702.484 198.136 705.343 196.052C710.088 196.729 714.035 196.424 718.737 195.553C718.948 195.737 719.152 195.929 719.368 196.106C724.762 200.51 733.971 193.323 736.91 211.609C738.444 221.16 737.533 231.711 737.55 241.421L737.512 303.226C737.534 313.303 736.67 324.826 739.688 334.506C741.827 341.368 746.294 347.146 752.074 351.357C757.905 355.605 764.837 358.207 771.643 360.428Q773.841 361.141 776.06 361.788Q778.278 362.434 780.516 363.013Q782.753 363.592 785.006 364.103Q787.26 364.614 789.528 365.057Q791.796 365.5 794.077 365.873Q796.357 366.247 798.648 366.552Q800.939 366.856 803.238 367.091Q805.537 367.327 807.842 367.492Q810.146 367.657 812.455 367.753Q814.764 367.849 817.075 367.874Q819.386 367.9 821.696 367.856Q824.007 367.812 826.315 367.698Q828.623 367.584 830.927 367.4Q833.23 367.216 835.527 366.962Q837.824 366.709 840.112 366.386Q842.401 366.063 844.678 365.671C856.174 363.732 868.48 360.202 879.049 355.259C889.971 365.794 901.985 373.278 916.061 379.03C924.421 382.446 933.374 383.958 941.638 387.306Q942.319 387.583 942.989 387.884Q943.66 388.186 944.319 388.511Q944.978 388.837 945.624 389.187Q946.271 389.536 946.904 389.909Q947.537 390.282 948.157 390.678Q948.776 391.074 949.38 391.492Q949.985 391.91 950.574 392.35Q951.162 392.79 951.735 393.251Q952.307 393.712 952.862 394.194Q953.417 394.676 953.954 395.178Q954.491 395.68 955.01 396.201Q955.528 396.722 956.027 397.261Q956.526 397.801 957.005 398.358Q957.484 398.916 957.943 399.49Q958.401 400.065 958.838 400.656Q959.275 401.247 959.69 401.853Q960.105 402.46 960.498 403.081Q960.891 403.703 961.26 404.338Q961.63 404.973 961.976 405.621Q962.323 406.27 962.645 406.93Q962.968 407.591 963.266 408.263Q963.564 408.934 963.837 409.617Q964.11 410.299 964.359 410.991Q964.607 411.683 964.829 412.383Q965.052 413.083 965.249 413.792Q965.446 414.5 965.617 415.215Q965.788 415.929 965.933 416.65Q966.078 417.371 966.196 418.096Q966.315 418.821 966.407 419.551Q966.499 420.28 966.564 421.012Q966.629 421.744 966.667 422.478Q966.705 423.212 966.717 423.947C966.937 434.809 962.909 446.476 955.324 454.352C944.196 465.907 933.225 464.164 919.816 469.863C891.189 482.031 875.844 517.185 876.126 546.755C876.342 569.403 885.702 589.536 901.935 605.23C912.165 615.121 924.377 618.193 936.68 624.329C945.897 628.926 955.116 634.665 962.692 641.673C980.93 658.545 992.058 684.162 992.585 708.911C993.159 735.81 984.012 762.897 965.229 782.434C954.196 793.909 938.923 803.612 923.594 808.063C909.534 812.146 893.51 812.202 878.917 813.264L827.962 817.063C791.73 819.584 755.58 823.139 719.369 825.851C711.17 826.465 674.69 828.606 669.101 830.909L605.561 623.549Q626.023 622.488 646.502 621.868C653.768 621.609 661.624 621.961 668.784 620.721C682.506 618.345 690.102 602.433 697.467 591.898L705.133 591.563C709.351 592.051 737.445 592.231 740.086 591.221C740.919 590.903 741.02 590.574 741.293 589.788L740.657 588.815C739.31 587.38 737.468 586.249 735.88 585.083C735.379 583.724 734.512 582.46 733.986 581.077C731.763 575.226 730.327 565.494 731.697 559.337C732.532 555.589 734.284 552.438 735.793 548.971L735.151 548.286C736.622 547.617 738.101 547.905 739.602 546.948L739.893 545.495L739.719 543.633L781.142 543.484C790.497 543.461 799.947 543.719 809.291 543.396C811.261 543.524 813.589 543.804 815.299 542.68C815.625 541.457 815.606 541.468 815.078 540.313C812.7 540.009 810.451 540.45 808.054 539.953C806.679 538.872 806.623 538.262 806.037 536.651C801.832 524.254 802.156 512.165 807.815 500.328C809.962 500.334 812.607 500.411 814.646 499.742C815.748 499.38 815.867 499.2 816.379 498.238L816.046 497.242L815.391 495.619C801.992 496.176 788.528 495.927 775.12 495.879L714.514 495.68L672.998 495.759C664.156 495.78 655.116 496.098 646.31 495.28C633.868 493.799 605.325 497.158 595.539 493.388C586.371 494.591 579.214 496.246 573.285 504.001Q572.893 504.514 572.508 505.033C569.055 499.434 552.224 406.956 549.351 392.99C545.608 374.795 537.126 361.608 521.581 351.361L521.471 331.439C521.481 330.195 521.211 327.92 521.509 326.775C521.549 326.619 521.727 326.536 521.853 326.437C522.878 325.63 524.535 325.32 525.781 324.9C530.623 323.27 534.605 320.272 537.344 315.932C539.168 313.041 540.265 309.806 540.811 306.444C541.559 301.829 541.993 272.543 540.992 268.685C540.775 267.852 539.815 267.682 539.093 267.31L540.771 267.419C541.525 266.429 541.633 265.801 541.416 264.546C541.029 262.31 540.045 259.996 539.233 257.88C531.831 266.36 525.212 273.551 515.486 279.624C511.092 282.367 504.903 284.488 501.237 288.062C498.895 284.9 495.828 281.935 491.767 281.315C489.139 280.913 486.532 281.713 484.507 283.42C481.957 285.571 480.631 288.85 480.537 292.145C480.398 297.051 482.725 300.585 485.509 304.334C485.585 313.334 485.697 322.371 485.411 331.368C480.294 331.416 476.674 332.151 471.968 334.185C447.539 347.748 434.131 382.235 426.186 407.903Q403.991 407.729 381.799 407.26C374.919 407.157 366.917 406.167 360.173 407.547C357.491 408.095 354.995 409.675 353.113 411.633C347.922 417.035 347.864 427.244 344.415 433.863C341.547 439.367 336.215 444.048 333.971 449.65L334.305 450.519C336.536 451.425 339.186 450.735 341.542 450.583L332.566 486.75C326.9 509.48 319.948 529.57 332.929 551.554Q333.626 552.732 334.381 553.873Q335.136 555.015 335.947 556.117Q336.758 557.22 337.622 558.28Q338.487 559.341 339.404 560.358Q340.32 561.374 341.286 562.344Q342.252 563.313 343.264 564.234Q344.277 565.154 345.335 566.023Q346.392 566.891 347.491 567.706Q348.591 568.522 349.729 569.281Q350.868 570.04 352.043 570.742Q353.218 571.444 354.426 572.086Q355.634 572.729 356.873 573.31Q358.112 573.892 359.378 574.411Q360.645 574.93 361.935 575.386Q363.226 575.842 364.537 576.232Q365.849 576.623 367.178 576.948C374.918 578.876 382.685 578.638 390.589 578.475Q380.447 612.248 370.784 646.161C368.142 655.353 363.609 667.769 362.259 676.882C363.547 677.917 365.399 677.88 367.026 678.087C358.507 708.578 349.446 739.057 341.766 769.769C337.05 785.588 333.057 801.572 328.738 817.499C323.832 835.586 318.637 853.57 313.909 871.708L307.052 897.313C305.569 902.74 303.751 908.23 302.914 913.795C302.802 914.543 302.769 914.931 303.204 915.605C303.288 915.737 303.98 916.379 304.065 916.462C305.779 918.145 305.743 919.342 305.726 921.646Q305.634 944.772 305.853 967.897C256.474 967.269 207.08 967.765 157.698 967.684C140.537 967.656 123.327 967.888 106.174 967.523C101.839 963.642 97.6537 959.622 93.8549 955.207C74.8641 933.137 58.0448 904.914 60.2471 874.891C59.7381 872.299 52.8482 865.221 50.9729 862.577C35.6658 840.992 26.4404 812.968 28.0841 786.502C29.7537 759.618 40.1063 736.833 58.1117 716.99C65.8096 708.506 74.2775 701.118 84.445 695.705C92.2845 691.532 100.728 688.8 108.894 685.365Q113.865 683.246 118.644 680.726Q123.423 678.205 127.979 675.3Q132.534 672.394 136.836 669.124Q141.137 665.853 145.154 662.24C169.252 640.93 185.08 610.18 186.89 577.931C189.319 534.647 167.815 489.904 131.154 466.171C123.135 460.979 114.366 457.254 105.886 452.918C92.4394 446.043 80.2715 436.076 70.3254 424.79C48.76 400.318 39.2444 368.848 41.2586 336.496C43.2888 303.886 57.1909 272.907 81.9092 251.319C106.523 229.823 140.264 219.424 172.727 221.667C185.116 222.524 197.271 225.501 209.693 226.318C213.793 226.588 239.835 227.07 241.989 225.881C242.375 225.668 242.655 225.303 242.987 225.014C242.931 233.423 241.78 243.332 246.995 250.548C250.643 255.596 256.05 258.419 262.15 259.254C271.872 260.585 288.219 260.591 296.001 254.474C309.71 243.697 302.541 220.639 304.392 205.466C304.411 205.305 304.435 205.144 304.457 204.983C304.926 209.236 304.648 213.758 304.668 218.045Z"/>
	<path fill="white" d="M159.499 385.153C170.679 383.876 176.961 394.017 187.658 395.92C193.672 393.725 198.025 389.348 203.72 386.716C215.768 381.147 220.427 391.565 230.316 394.867C239.417 397.905 244.792 390.23 251.995 386.723C256.168 384.692 260.929 384.629 265.267 386.2L265.315 387.529L265.051 387.785C262.608 388.596 260.119 388.118 257.603 387.867C249.795 388.685 244.958 396.544 237.249 398.263C229.672 399.953 224.75 395.255 218.892 391.493C207.148 383.95 202.095 392.163 192.323 397.248C190.255 398.324 187.83 398.763 185.568 399.259C177.906 397.206 170.211 388.481 162.93 388.313C159.398 388.231 155.933 389.459 152.425 389.802L152.018 389.328C151.903 388.613 151.633 388.291 152.15 387.685C153.739 385.823 157.213 385.569 159.499 385.153Z"/>
	<path fill="white" d="M185.86 336.054C196.229 335.322 200.061 344.927 209.233 346.537C220.179 348.458 225.123 336.573 235.268 336.245C245.347 335.919 251.239 347.665 261.852 346.755C263.077 346.651 263.891 346.584 265.099 346.94L265.527 347.781C265.12 349.073 265.106 349.095 263.995 349.866C253.215 351.48 247.742 342.809 238.62 339.797C230.633 337.159 224.777 344.795 218.27 348.138C201.149 354.787 199.841 338.709 186.995 339.237C179.586 339.541 174.508 349.011 165.998 350.016C158.021 350.957 153.062 346.049 146.675 342.588C144.132 341.21 141.345 340.261 139.081 338.436L139.137 337.395L139.99 336.813C145.315 336.732 151.576 342.825 156.117 345.232C169.307 352.224 174.992 339.276 185.86 336.054Z"/>
	<path fill="#78A1E3" d="M449.449 333.72C449.604 309.288 451.248 275.263 468.59 256.532Q469.421 255.635 470.296 254.782Q471.171 253.928 472.088 253.119Q473.004 252.311 473.96 251.549Q474.917 250.787 475.91 250.075Q476.903 249.362 477.93 248.7Q478.958 248.038 480.018 247.428Q481.077 246.818 482.166 246.263Q483.255 245.707 484.37 245.207Q485.486 244.706 486.625 244.262Q487.764 243.819 488.924 243.433Q490.083 243.046 491.261 242.719Q492.439 242.392 493.632 242.124Q494.824 241.856 496.029 241.648Q497.234 241.44 498.447 241.293Q499.661 241.146 500.88 241.061Q502.1 240.975 503.322 240.95C514.628 240.611 529.145 244.13 537.454 252.251C550.962 265.452 550.401 312.728 550.584 331.649L521.471 331.439C521.481 330.195 521.211 327.92 521.509 326.775C521.549 326.619 521.727 326.536 521.853 326.437C522.878 325.63 524.535 325.32 525.781 324.9C530.623 323.27 534.605 320.272 537.344 315.932C539.168 313.041 540.265 309.806 540.811 306.444C541.559 301.829 541.993 272.543 540.992 268.685C540.775 267.852 539.815 267.682 539.093 267.31L540.771 267.419C541.525 266.429 541.633 265.801 541.416 264.546C541.029 262.31 540.045 259.996 539.233 257.88C531.831 266.36 525.212 273.551 515.486 279.624C511.092 282.367 504.903 284.488 501.237 288.062C498.895 284.9 495.828 281.935 491.767 281.315C489.139 280.913 486.532 281.713 484.507 283.42C481.957 285.571 480.631 288.85 480.537 292.145C480.398 297.051 482.725 300.585 485.509 304.334C485.585 313.334 485.697 322.371 485.411 331.368C480.294 331.416 476.674 332.151 471.968 334.185C468.474 332.464 454.199 333.65 449.449 333.72Z"/>
	<path fill="white" d="M845.08 639.904C848.585 640.229 867.767 654.083 871.591 657.048C871.449 665.812 871.526 674.591 871.504 683.358C879.408 689.914 888.431 695.061 897.148 700.456C897.377 710.345 897.043 720.349 896.984 730.247C890.924 736.935 879.274 744.396 871.474 748.943C863.636 742.876 854.808 737.291 846.326 732.159C839.403 738.027 829.226 744.759 821.388 749.431C813.761 742.777 802.758 737.715 796.594 731.895C787.948 737.069 779.981 744.368 770.985 748.677C762.947 745.007 752.817 737.226 745.182 732.302C737.57 738.424 729.258 743.736 721.181 749.219C714.497 743.812 707.118 739.386 699.841 734.837C699.366 734.5 699.037 734.288 698.603 733.871C697.613 732.92 697.165 731.366 697.2 730.008C697.233 728.721 697.607 728.122 698.527 727.301L699.332 727.612C699.576 728.815 699.823 729.691 700.664 730.651C705.132 735.745 715.229 740.411 720.899 745.424C728.98 740.696 736.782 734.542 744.605 729.3Q744.599 716.087 744.762 702.874C739.535 698.027 727.379 691.428 721.015 687.326C713.371 692.93 705.521 698.214 697.961 703.94C696.944 703.11 697.1 702.133 696.898 700.875C698.211 698.389 717.576 685.927 721.69 682.823C729.542 688.651 737.997 693.774 745.993 699.441C754.748 694.503 763.15 688.114 771.528 682.512C771.531 673.765 771.984 664.748 771.216 656.041C778.706 650.482 786.948 645.378 794.879 640.462C803.723 644.788 812.177 650.169 820.606 655.246L845.08 639.904Z"/>
	<path fill="#FED4CA" d="M795.022 644.345C803.707 647.823 812.409 654.154 820.221 659.259C820.553 667.091 820.391 674.939 820.198 682.771C812.798 688.244 805.077 693.288 797.896 699.053L796.556 699.397C790.782 697.046 778.688 688.117 773.824 683.78Q773.543 671.101 773.735 658.42C780.601 653.493 788.025 649.131 795.022 644.345Z"/>
	<path fill="#FED4CA" d="M844.847 643.399C852.705 647.202 862.438 653.86 869.481 659.119Q869.454 671.215 869.598 683.31Q858.432 691.703 846.807 699.449C841.594 697.945 826.875 687.655 822.784 683.717C822.608 675.256 822.748 666.801 822.488 658.335C829.757 653.07 837.695 648.884 844.847 643.399Z"/>
	<path fill="#FED4CA" d="M869.552 687.406C872.643 687.294 889.956 700.236 894.486 702.757C894.617 711.259 894.324 719.765 894.66 728.264C887.645 734.25 879.539 738.868 872.339 744.652C867.746 743.047 852.802 732.396 847.733 728.952C847.656 720.172 847.397 711.346 847.77 702.574C855.284 697.826 862.419 692.702 869.552 687.406Z"/>
	<path fill="#FED4CA" d="M820.035 687.434C822.814 687.769 841.839 700.261 845.183 702.901C844.996 711.573 845.083 720.263 845.063 728.937C837.861 734.695 829.795 739.562 822.26 744.899C819.63 745.105 800.596 731.008 797.544 728.745L797.352 703.245C804.682 697.676 812.428 692.617 820.035 687.434Z"/>
	<path fill="#FED4CA" d="M771.707 687.006C774.901 687.998 791.792 700.425 795.471 703.203Q795.196 715.935 795.437 728.668C786.789 733.41 778.989 739.605 770.826 745.104C762.434 740.421 754.471 734.509 746.506 729.117L746.528 703.534C753.816 697.256 763.358 691.789 771.707 687.006Z"/>
	<path d="M570.015 401.988L721.645 402.031C735.927 402.035 822.603 400.938 827.101 402.763C827.636 403.882 827.531 403.838 827.131 405.031C822.833 413.663 818.767 420.257 822.155 430.268C823.487 434.204 825.66 437.742 827.051 441.579C827.609 442.928 827.836 443.088 827.451 444.469C826.941 444.857 826.431 445.294 825.884 445.627C824.969 446.611 824.802 446.718 824.59 448.027C825.08 448.953 825.17 449.038 826.082 449.557L827.481 449.959L827.651 450.797C822.292 452.853 775.789 451.31 766.609 451.606C770.274 452.976 816.996 452.077 824.962 452.072C820.255 457.649 816.43 463.173 817.056 470.892C817.382 474.905 818.982 478.655 820.984 482.102C821.474 482.945 822.459 484.167 822.759 485.046C822.957 485.625 822.754 486.39 822.481 486.888C824.524 486.818 825.669 486.818 827.461 487.85L828.136 488.822C827.58 489.879 826.98 490.189 825.845 490.581C825.663 490.644 825.473 490.68 825.286 490.73C822.223 491.579 816.542 490.692 814.451 492.852L815.391 495.619C801.992 496.176 788.528 495.927 775.12 495.879L714.514 495.68L672.998 495.759C664.156 495.78 655.116 496.098 646.31 495.28C633.868 493.799 605.325 497.158 595.539 493.388C590.021 490.84 585.272 487.461 581.943 482.263C578.377 476.695 576.947 469.108 578.496 462.645C580.507 454.248 586.538 449.24 593.591 445.053C585.707 444.876 577.794 444.992 569.906 444.975Q569.803 423.48 570.015 401.988Z"/>
	<path fill="#4375BE" d="M777.789 404.882L790.522 404.882C787.029 409.231 784.991 414.336 784.256 419.847C783.156 428.095 785.321 435.137 790.331 441.688C786.38 441.945 782.259 441.621 778.293 441.541C774.682 437.953 772.667 434.06 771.773 429.026C770.195 420.148 772.7 412.138 777.789 404.882Z"/>
	<path fill="#F4793D" d="M630.597 445.173C678.898 444.506 727.302 444.946 775.613 445.002C784.517 445.012 820.184 444.056 825.884 445.627C824.969 446.611 824.802 446.718 824.59 448.027C825.08 448.953 825.17 449.038 826.082 449.557C821.638 450.474 816.112 449.915 811.54 449.922L781.609 449.909L713.882 449.683C703.816 449.592 692.008 450.737 682.209 448.516L683.568 446.522L683.352 445.82C676.545 444.412 650.361 445.481 641.586 445.495C638.153 445.501 633.931 445.957 630.597 445.173Z"/>
	<path d="M682.209 448.516C692.008 450.737 703.816 449.592 713.882 449.683L781.609 449.909L811.54 449.922C816.112 449.915 821.638 450.474 826.082 449.557L827.481 449.959L827.651 450.797C822.292 452.853 775.789 451.31 766.609 451.606L682.69 451.408C677.9 457.371 675.056 463.648 675.911 471.508C676.532 477.216 678.98 482.229 682.149 486.933C691.479 486.02 701.227 486.523 710.612 486.524C722.176 486.526 733.859 486.182 745.411 486.567C771.058 486.111 796.885 487.955 822.481 486.888C824.524 486.818 825.669 486.818 827.461 487.85L828.136 488.822C827.58 489.879 826.98 490.189 825.845 490.581C825.663 490.644 825.473 490.68 825.286 490.73C822.223 491.579 816.542 490.692 814.451 492.852C809.489 493.513 803.932 493.052 798.893 493.046L768.611 492.982C736.756 492.896 704.651 493.596 672.84 492.12C675.973 491.958 680.048 492.449 682.992 491.456L682.874 490.761L680.927 489.945C680.737 489.812 680.516 489.714 680.357 489.545C675.039 483.897 672.54 473.257 673.451 465.741C674.223 459.378 677.172 452.594 682.209 448.516Z"/>
	<path fill="#855141" d="M768.156 488.945C751.072 489.268 733.941 489.103 716.852 489.091C705.863 489.083 694.406 489.679 683.476 488.519L683.395 488.293C691.113 486.939 700.175 487.767 708.03 487.727L754.554 487.474C761.619 488.392 769.027 487.596 776.151 487.915C780.024 487.94 783.915 487.887 787.772 488.267C783.847 488.542 779.945 488.657 776.011 488.704C773.532 488.706 770.549 488.371 768.156 488.945Z"/>
	<path fill="#6B1E18" d="M745.411 486.567C771.058 486.111 796.885 487.955 822.481 486.888C824.524 486.818 825.669 486.818 827.461 487.85L828.136 488.822C827.58 489.879 826.98 490.189 825.845 490.581C825.663 490.644 825.473 490.68 825.286 490.73C818.451 490.618 811.455 490.782 804.652 490.149L805.926 489.623C804.269 488.417 772.527 489.318 768.156 488.945C770.549 488.371 773.532 488.706 776.011 488.704C779.945 488.657 783.847 488.542 787.772 488.267C783.915 487.887 780.024 487.94 776.151 487.915C769.027 487.596 761.619 488.392 754.554 487.474C751.558 487.022 748.435 486.925 745.411 486.567Z"/>
	<path fill="#F4793D" d="M680.927 489.945C722.12 489.994 763.478 489.073 804.652 490.149C811.455 490.782 818.451 490.618 825.286 490.73C822.223 491.579 816.542 490.692 814.451 492.852C809.489 493.513 803.932 493.052 798.893 493.046L768.611 492.982C736.756 492.896 704.651 493.596 672.84 492.12C675.973 491.958 680.048 492.449 682.992 491.456L682.874 490.761L680.927 489.945Z"/>
	<path fill="white" d="M795.328 405.109C805.898 404.725 816.551 405.011 827.131 405.031C822.833 413.663 818.767 420.257 822.155 430.268C823.487 434.204 825.66 437.742 827.051 441.579L793.229 441.476C792.247 440.493 791.243 439.497 790.454 438.347C786.397 432.435 785.362 423.934 786.945 417.027C788.205 411.529 790.701 408.114 795.328 405.109Z"/>
	<path fill="#FED4CA" d="M672.84 492.12C659.142 492.709 645.131 491.985 631.405 491.995C622.701 492.001 607.615 493.186 599.532 491.587C595.259 490.743 591.027 488.298 587.884 485.326Q587.458 484.919 587.052 484.49Q586.647 484.062 586.263 483.614Q585.88 483.166 585.519 482.699Q585.159 482.232 584.822 481.748Q584.486 481.263 584.174 480.763Q583.862 480.262 583.575 479.747Q583.289 479.231 583.029 478.702Q582.768 478.173 582.535 477.631Q582.302 477.089 582.096 476.537Q581.89 475.984 581.712 475.422Q581.534 474.859 581.385 474.289Q581.235 473.718 581.114 473.141Q580.994 472.564 580.902 471.981Q580.81 471.398 580.748 470.812Q580.686 470.226 580.653 469.637Q580.62 469.048 580.617 468.458C580.553 462.488 583.093 456.96 587.32 452.799C598.296 441.993 616.59 445.017 630.597 445.173C633.931 445.957 638.153 445.501 641.586 445.495C650.361 445.481 676.545 444.412 683.352 445.82L683.568 446.522L682.209 448.516C677.172 452.594 674.223 459.378 673.451 465.741C672.54 473.257 675.039 483.897 680.357 489.545C680.516 489.714 680.737 489.812 680.927 489.945L682.874 490.761L682.992 491.456C680.048 492.449 675.973 491.958 672.84 492.12Z"/>
	<path fill="white" d="M682.69 451.408L766.609 451.606C770.274 452.976 816.996 452.077 824.962 452.072C820.255 457.649 816.43 463.173 817.056 470.892C817.382 474.905 818.982 478.655 820.984 482.102C821.474 482.945 822.459 484.167 822.759 485.046C822.957 485.625 822.754 486.39 822.481 486.888C796.885 487.955 771.058 486.111 745.411 486.567C733.859 486.182 722.176 486.526 710.612 486.524C701.227 486.523 691.479 486.02 682.149 486.933C678.98 482.229 676.532 477.216 675.911 471.508C675.056 463.648 677.9 457.371 682.69 451.408Z"/>
	<path fill="#4375BE" d="M572.537 404.663C595.613 404.282 618.747 404.627 641.827 404.637L774.841 404.567C773.319 407.132 771.771 409.684 770.711 412.482C767.162 421.857 768.353 429.901 772.381 438.846L774.338 441.818C769.739 443.544 657.085 442.235 641.651 442.198L572.359 442.451Q572.316 423.556 572.537 404.663Z"/>
	<path fill="#78A1E3" d="M205.103 830.093C204.761 823.956 204.455 817.853 204.725 811.704C205.684 789.845 210.357 763.36 227.489 747.962C232.809 743.18 239.758 740.084 247.016 740.601C255.182 741.183 262.434 746.01 267.603 752.118C285.929 773.774 288.249 810.611 286.06 837.95C288.399 830.579 290.072 823.005 292.467 815.645C297.207 801.083 305.842 783.864 318.688 774.802C325.887 769.723 333.1 768.214 341.766 769.769C337.05 785.588 333.057 801.572 328.738 817.499C323.832 835.586 318.637 853.57 313.909 871.708L307.052 897.313C305.569 902.74 303.751 908.23 302.914 913.795C302.802 914.543 302.769 914.931 303.204 915.605C303.288 915.737 303.98 916.379 304.065 916.462C305.779 918.145 305.743 919.342 305.726 921.646Q305.634 944.772 305.853 967.897C256.474 967.269 207.08 967.765 157.698 967.684C140.537 967.656 123.327 967.888 106.174 967.523C101.839 963.642 97.6537 959.622 93.8549 955.207C74.8641 933.137 58.0448 904.914 60.2471 874.891C61.523 868.142 63.7184 862.343 68.795 857.475C73.9567 852.526 80.4583 850.448 87.519 850.731C105.712 851.461 121.235 866.314 132.928 878.83C129.798 872.514 126.382 866.474 123.67 859.942C113.597 835.688 103.333 803.068 114.103 777.509C117.653 769.083 124.336 761.622 132.971 758.26C140.368 755.379 148.276 756.259 155.437 759.311C176.052 768.098 190.321 791.229 198.443 811.195C200.893 817.218 202.411 823.562 204.878 829.559L205.103 830.093Z"/>
</svg>
